<svg width="16" height="16" viewBox="0 0 16 16" fill="none" xmlns="http://www.w3.org/2000/svg">
<g clip-path="url(#clip0_577_5494)">
<path d="M8 16C12.4183 16 16 12.4183 16 8C16 3.58172 12.4183 0 8 0C3.58172 0 0 3.58172 0 8C0 12.4183 3.58172 16 8 16Z" fill="#DC2863"/>
<path d="M11.125 9.75C12.1605 9.75 13 8.91053 13 7.875C13 6.83947 12.1605 6 11.125 6C10.0895 6 9.25 6.83947 9.25 7.875C9.25 8.91053 10.0895 9.75 11.125 9.75Z" fill="white"/>
<path d="M11.125 8.75C11.6082 8.75 12 8.35825 12 7.875C12 7.39175 11.6082 7 11.125 7C10.6418 7 10.25 7.39175 10.25 7.875C10.25 8.35825 10.6418 8.75 11.125 8.75Z" fill="#1A1A54"/>
<path d="M4.875 9.75C5.91053 9.75 6.75 8.91053 6.75 7.875C6.75 6.83947 5.91053 6 4.875 6C3.83947 6 3 6.83947 3 7.875C3 8.91053 3.83947 9.75 4.875 9.75Z" fill="white"/>
<path d="M4.875 8.75C5.35825 8.75 5.75 8.35825 5.75 7.875C5.75 7.39175 5.35825 7 4.875 7C4.39175 7 4 7.39175 4 7.875C4 8.35825 4.39175 8.75 4.875 8.75Z" fill="#1A1A54"/>
<path d="M10.175 12.25C9.75 11.5 8.925 11 8 11C7.075 11 6.275 11.5 5.825 12.25" stroke="#1A1A54" stroke-width="3" stroke-miterlimit="10" stroke-linecap="round" stroke-linejoin="round"/>
<path d="M1.05 5L8 8.65L14.95 5H1.05Z" fill="#DC2863"/>
<path d="M9.125 7.59906L13.05 5.22406C13.375 5.02406 13.8 5.12406 14 5.44906C14.2 5.77406 14.1 6.19906 13.775 6.39906C13.75 6.42406 13.7 6.42406 13.675 6.44906L9.4 8.14906C9.25 8.19906 9.075 8.12406 9.025 7.97406C8.95 7.82406 9 7.67406 9.125 7.59906Z" fill="#1A1A54"/>
<path d="M6.625 8.15002L2.35 6.45003C2 6.30003 1.825 5.92503 1.975 5.55003C2.125 5.20003 2.5 5.02503 2.875 5.17503C2.9 5.20003 2.95 5.20003 2.975 5.22503L6.9 7.60003C7.05 7.67503 7.075 7.87503 7 8.00003C6.9 8.15003 6.75 8.20002 6.625 8.15002Z" fill="#1A1A54"/>
</g>
<defs>
<clipPath id="clip0_577_5494">
<rect width="16" height="16" fill="white"/>
</clipPath>
</defs>
</svg>
