<svg width="99" height="35" viewBox="0 0 99 35" fill="none" xmlns="http://www.w3.org/2000/svg">
<rect width="99" height="35" rx="17.5" fill="#FFD75E"/>
<path d="M29.319 15.632C29.287 15.6427 29.255 15.6587 29.223 15.68C29.191 15.6907 29.159 15.696 29.127 15.696C29.0417 15.696 28.951 15.632 28.855 15.504C28.4283 14.9707 28.007 14.5333 27.591 14.192C27.175 13.8507 26.7537 13.5893 26.327 13.408V16.704C26.8923 16.864 27.4363 17.0507 27.959 17.264C28.4923 17.4667 28.967 17.712 29.383 18C29.799 18.288 30.1297 18.6347 30.375 19.04C30.6203 19.4347 30.743 19.9093 30.743 20.464C30.743 21.1787 30.567 21.8133 30.215 22.368C29.8737 22.912 29.3723 23.3493 28.711 23.68C28.0497 24 27.255 24.176 26.327 24.208V25.152C26.327 25.312 26.247 25.392 26.087 25.392H24.999C24.839 25.392 24.759 25.312 24.759 25.152V24.032C24.5457 23.968 24.3323 23.8987 24.119 23.824C23.9163 23.7387 23.7137 23.648 23.511 23.552C23.4257 23.5093 23.3457 23.488 23.271 23.488C23.175 23.488 23.127 23.5413 23.127 23.648C23.127 23.68 23.1377 23.7387 23.159 23.824C23.191 23.8987 23.207 23.9627 23.207 24.016C23.207 24.1333 23.1163 24.192 22.935 24.192H22.135C21.943 24.192 21.8097 24.1173 21.735 23.968L19.799 20.336C19.7563 20.2507 19.735 20.1867 19.735 20.144C19.735 20.0267 19.7937 19.936 19.911 19.872L20.615 19.472C20.647 19.4507 20.679 19.4347 20.711 19.424C20.743 19.4133 20.775 19.408 20.807 19.408C20.9137 19.408 21.0043 19.472 21.079 19.6C21.6123 20.4213 22.1883 21.0827 22.807 21.584C23.4363 22.0853 24.087 22.4373 24.759 22.64V18.72C24.2577 18.5707 23.7617 18.3893 23.271 18.176C22.791 17.9627 22.3537 17.7067 21.959 17.408C21.575 17.1093 21.2657 16.7573 21.031 16.352C20.807 15.936 20.695 15.4507 20.695 14.896C20.695 14.192 20.871 13.6107 21.223 13.152C21.5857 12.6933 22.071 12.3573 22.679 12.144C23.287 11.92 23.975 11.808 24.743 11.808H24.759V10.896C24.759 10.736 24.839 10.656 24.999 10.656H26.087C26.247 10.656 26.327 10.736 26.327 10.896V12.048C26.519 12.112 26.6897 12.1813 26.839 12.256C26.9883 12.32 27.1163 12.384 27.223 12.448C27.4043 12.5547 27.527 12.608 27.591 12.608C27.6443 12.608 27.671 12.576 27.671 12.512C27.671 12.4587 27.655 12.384 27.623 12.288C27.6017 12.192 27.591 12.0907 27.591 11.984C27.591 11.824 27.687 11.744 27.879 11.744H28.455C28.647 11.744 28.7803 11.8347 28.855 12.016L29.975 14.88C29.9963 14.9227 30.0123 14.9653 30.023 15.008C30.0337 15.04 30.039 15.072 30.039 15.104C30.039 15.2 29.9803 15.28 29.863 15.344L29.319 15.632ZM23.239 14.496C23.239 14.9227 23.383 15.2693 23.671 15.536C23.9697 15.8027 24.3323 16.0213 24.759 16.192V13.104C24.3323 13.1147 23.9697 13.232 23.671 13.456C23.383 13.68 23.239 14.0267 23.239 14.496ZM28.343 21.184C28.343 20.6293 28.1777 20.2187 27.847 19.952C27.527 19.6747 27.0203 19.424 26.327 19.2V22.848C26.9777 22.8267 27.4737 22.6613 27.815 22.352C28.167 22.032 28.343 21.6427 28.343 21.184ZM39.2175 12C39.3775 12 39.4575 12.08 39.4575 12.24V12.72C39.4575 12.88 39.3775 12.96 39.2175 12.96H39.1215C38.7162 12.96 38.4335 13.1093 38.2735 13.408C38.1135 13.7067 38.0335 14.064 38.0335 14.48V20.512C38.0335 20.9707 37.9748 21.4187 37.8575 21.856C37.7508 22.2933 37.5642 22.6933 37.2975 23.056C37.0415 23.408 36.6842 23.6907 36.2255 23.904C35.7775 24.1067 35.2068 24.208 34.5135 24.208C33.9588 24.208 33.4895 24.1227 33.1055 23.952C32.7322 23.7707 32.4282 23.552 32.1935 23.296C31.9695 23.04 31.8042 22.7947 31.6975 22.56C31.5908 22.3253 31.5375 22.1493 31.5375 22.032C31.5375 21.872 31.6228 21.744 31.7935 21.648L33.2815 20.848C33.3775 20.7947 33.4522 20.768 33.5055 20.768C33.6122 20.768 33.6655 20.8373 33.6655 20.976C33.6655 21.0613 33.6548 21.152 33.6335 21.248C33.6228 21.344 33.6175 21.4827 33.6175 21.664C33.6175 21.856 33.6388 22.0693 33.6815 22.304C33.7242 22.528 33.8095 22.7253 33.9375 22.896C34.0655 23.056 34.2575 23.136 34.5135 23.136C34.8335 23.136 35.0735 23.024 35.2335 22.8C35.4042 22.5653 35.4895 22.2827 35.4895 21.952V14.48C35.4895 14.0533 35.4095 13.696 35.2495 13.408C35.0895 13.1093 34.8068 12.96 34.4015 12.96H34.2895C34.1295 12.96 34.0495 12.88 34.0495 12.72V12.24C34.0495 12.08 34.1295 12 34.2895 12H39.2175ZM51.7254 20.576C51.8214 20.6293 51.8694 20.688 51.8694 20.752C51.8694 20.7947 51.8534 20.848 51.8214 20.912L50.3174 24.08C50.2747 24.176 50.2107 24.224 50.1254 24.224C50.072 24.224 50.024 24.2027 49.9814 24.16L49.9014 24.08C49.848 24.0267 49.7414 24 49.5814 24H40.8294C40.6694 24 40.5894 23.92 40.5894 23.76V23.28C40.5894 23.12 40.6694 23.04 40.8294 23.04H40.8614C41.6294 23.04 42.0134 22.5333 42.0134 21.52V14.496C42.0134 13.4827 41.624 12.976 40.8454 12.976H40.8294C40.6694 12.976 40.5894 12.896 40.5894 12.736V12.256C40.5894 12.0853 40.6694 12 40.8294 12H48.8454C48.984 12 49.0854 11.9733 49.1494 11.92L49.2454 11.84C49.2774 11.808 49.32 11.792 49.3734 11.792C49.4587 11.792 49.528 11.8347 49.5814 11.92L50.8454 14.096C50.8774 14.1387 50.8934 14.1867 50.8934 14.24C50.8934 14.3147 50.8507 14.3787 50.7654 14.432L50.1254 14.784C50.0507 14.8267 49.992 14.848 49.9494 14.848C49.8747 14.848 49.8107 14.8 49.7574 14.704L49.7094 14.624C49.3787 14.0693 49.0214 13.6853 48.6374 13.472C48.264 13.248 47.768 13.136 47.1494 13.136H44.5574V16.896H45.9654C46.4454 16.896 46.8187 16.8053 47.0854 16.624C47.352 16.4427 47.4854 16.176 47.4854 15.824V15.712C47.4854 15.552 47.5654 15.472 47.7254 15.472H48.2054C48.3654 15.472 48.4454 15.552 48.4454 15.712V19.344C48.4454 19.504 48.3654 19.584 48.2054 19.584H47.7254C47.5654 19.584 47.4854 19.504 47.4854 19.344V19.248C47.4854 18.8853 47.352 18.6187 47.0854 18.448C46.8294 18.2667 46.456 18.176 45.9654 18.176H44.5574V21.344C44.5574 22.3573 44.9254 22.864 45.6614 22.864H46.7014C47.4907 22.864 48.1307 22.7893 48.6214 22.64C49.1227 22.4907 49.5387 22.24 49.8694 21.888C50.2107 21.536 50.5307 21.0613 50.8294 20.464L50.8774 20.368C50.9307 20.2827 51 20.24 51.0854 20.24C51.1387 20.24 51.1814 20.2507 51.2134 20.272L51.7254 20.576ZM63.7991 20.576C63.8951 20.6293 63.9431 20.688 63.9431 20.752C63.9431 20.7947 63.9271 20.848 63.8951 20.912L62.3911 24.08C62.3485 24.176 62.2845 24.224 62.1991 24.224C62.1458 24.224 62.0978 24.2027 62.0551 24.16L61.9751 24.08C61.9218 24.0267 61.8151 24 61.6551 24H52.9031C52.7431 24 52.6631 23.92 52.6631 23.76V23.28C52.6631 23.12 52.7431 23.04 52.9031 23.04H52.9351C53.7031 23.04 54.0871 22.5333 54.0871 21.52V14.496C54.0871 13.4827 53.6978 12.976 52.9191 12.976H52.9031C52.7431 12.976 52.6631 12.896 52.6631 12.736V12.256C52.6631 12.0853 52.7431 12 52.9031 12H60.9191C61.0578 12 61.1591 11.9733 61.2231 11.92L61.3191 11.84C61.3511 11.808 61.3938 11.792 61.4471 11.792C61.5325 11.792 61.6018 11.8347 61.6551 11.92L62.9191 14.096C62.9511 14.1387 62.9671 14.1867 62.9671 14.24C62.9671 14.3147 62.9245 14.3787 62.8391 14.432L62.1991 14.784C62.1245 14.8267 62.0658 14.848 62.0231 14.848C61.9485 14.848 61.8845 14.8 61.8311 14.704L61.7831 14.624C61.4525 14.0693 61.0951 13.6853 60.7111 13.472C60.3378 13.248 59.8418 13.136 59.2231 13.136H56.6311V16.896H58.0391C58.5191 16.896 58.8925 16.8053 59.1591 16.624C59.4258 16.4427 59.5591 16.176 59.5591 15.824V15.712C59.5591 15.552 59.6391 15.472 59.7991 15.472H60.2791C60.4391 15.472 60.5191 15.552 60.5191 15.712V19.344C60.5191 19.504 60.4391 19.584 60.2791 19.584H59.7991C59.6391 19.584 59.5591 19.504 59.5591 19.344V19.248C59.5591 18.8853 59.4258 18.6187 59.1591 18.448C58.9031 18.2667 58.5298 18.176 58.0391 18.176H56.6311V21.344C56.6311 22.3573 56.9991 22.864 57.7351 22.864H58.7751C59.5645 22.864 60.2045 22.7893 60.6951 22.64C61.1965 22.4907 61.6125 22.24 61.9431 21.888C62.2845 21.536 62.6045 21.0613 62.9031 20.464L62.9511 20.368C63.0045 20.2827 63.0738 20.24 63.1591 20.24C63.2125 20.24 63.2551 20.2507 63.2871 20.272L63.7991 20.576ZM73.2476 12C73.301 12 73.3596 11.9947 73.4236 11.984C73.4983 11.9627 73.573 11.9147 73.6476 11.84C73.6903 11.7973 73.7383 11.776 73.7916 11.776C73.877 11.776 73.941 11.824 73.9836 11.92L75.2476 14.256C75.2796 14.32 75.2956 14.368 75.2956 14.4C75.2956 14.4853 75.253 14.5493 75.1676 14.592L74.4956 14.96C74.4316 14.992 74.3783 15.008 74.3356 15.008C74.2716 15.008 74.213 14.96 74.1596 14.864L74.1116 14.768C73.845 14.2347 73.461 13.856 72.9596 13.632C72.4583 13.408 71.8823 13.296 71.2316 13.296H70.4476V21.52C70.4476 21.9467 70.5276 22.3093 70.6876 22.608C70.8476 22.896 71.1303 23.04 71.5356 23.04H71.6476C71.8076 23.04 71.8876 23.12 71.8876 23.28V23.76C71.8876 23.92 71.8076 24 71.6476 24H66.7196C66.5596 24 66.4796 23.92 66.4796 23.76V23.28C66.4796 23.12 66.5596 23.04 66.7196 23.04H66.8156C67.221 23.04 67.5036 22.896 67.6636 22.608C67.8236 22.3093 67.9036 21.9467 67.9036 21.52V13.296H67.1196C66.469 13.296 65.893 13.408 65.3916 13.632C64.8903 13.856 64.5063 14.2347 64.2396 14.768L64.1916 14.864C64.1383 14.96 64.0796 15.008 64.0156 15.008C63.973 15.008 63.9196 14.992 63.8556 14.96L63.1836 14.592C63.0983 14.5493 63.0556 14.4853 63.0556 14.4C63.0556 14.368 63.0716 14.32 63.1036 14.256L64.3676 11.92C64.421 11.824 64.485 11.776 64.5596 11.776C64.613 11.776 64.661 11.7973 64.7036 11.84C64.7783 11.9147 64.8476 11.9627 64.9116 11.984C64.9863 11.9947 65.0503 12 65.1036 12H73.2476Z" fill="black"/>
</svg>
