<svg width="99" height="35" viewBox="0 0 99 35" fill="none" xmlns="http://www.w3.org/2000/svg">
<rect width="99" height="35" rx="17.5" fill="#FFD75E"/>
<path d="M32.1549 15.632C32.1229 15.6427 32.0909 15.6587 32.0589 15.68C32.0269 15.6907 31.9949 15.696 31.9629 15.696C31.8776 15.696 31.7869 15.632 31.6909 15.504C31.2643 14.9707 30.8429 14.5333 30.4269 14.192C30.0109 13.8507 29.5896 13.5893 29.1629 13.408V16.704C29.7283 16.864 30.2723 17.0507 30.7949 17.264C31.3283 17.4667 31.8029 17.712 32.2189 18C32.6349 18.288 32.9656 18.6347 33.2109 19.04C33.4563 19.4347 33.5789 19.9093 33.5789 20.464C33.5789 21.1787 33.4029 21.8133 33.0509 22.368C32.7096 22.912 32.2083 23.3493 31.5469 23.68C30.8856 24 30.0909 24.176 29.1629 24.208V25.152C29.1629 25.312 29.0829 25.392 28.9229 25.392H27.8349C27.6749 25.392 27.5949 25.312 27.5949 25.152V24.032C27.3816 23.968 27.1683 23.8987 26.9549 23.824C26.7523 23.7387 26.5496 23.648 26.3469 23.552C26.2616 23.5093 26.1816 23.488 26.1069 23.488C26.0109 23.488 25.9629 23.5413 25.9629 23.648C25.9629 23.68 25.9736 23.7387 25.9949 23.824C26.0269 23.8987 26.0429 23.9627 26.0429 24.016C26.0429 24.1333 25.9523 24.192 25.7709 24.192H24.9709C24.7789 24.192 24.6456 24.1173 24.5709 23.968L22.6349 20.336C22.5923 20.2507 22.5709 20.1867 22.5709 20.144C22.5709 20.0267 22.6296 19.936 22.7469 19.872L23.4509 19.472C23.4829 19.4507 23.5149 19.4347 23.5469 19.424C23.5789 19.4133 23.6109 19.408 23.6429 19.408C23.7496 19.408 23.8403 19.472 23.9149 19.6C24.4483 20.4213 25.0243 21.0827 25.6429 21.584C26.2723 22.0853 26.9229 22.4373 27.5949 22.64V18.72C27.0936 18.5707 26.5976 18.3893 26.1069 18.176C25.6269 17.9627 25.1896 17.7067 24.7949 17.408C24.4109 17.1093 24.1016 16.7573 23.8669 16.352C23.6429 15.936 23.5309 15.4507 23.5309 14.896C23.5309 14.192 23.7069 13.6107 24.0589 13.152C24.4216 12.6933 24.9069 12.3573 25.5149 12.144C26.1229 11.92 26.8109 11.808 27.5789 11.808H27.5949V10.896C27.5949 10.736 27.6749 10.656 27.8349 10.656H28.9229C29.0829 10.656 29.1629 10.736 29.1629 10.896V12.048C29.3549 12.112 29.5256 12.1813 29.6749 12.256C29.8243 12.32 29.9523 12.384 30.0589 12.448C30.2403 12.5547 30.3629 12.608 30.4269 12.608C30.4803 12.608 30.5069 12.576 30.5069 12.512C30.5069 12.4587 30.4909 12.384 30.4589 12.288C30.4376 12.192 30.4269 12.0907 30.4269 11.984C30.4269 11.824 30.5229 11.744 30.7149 11.744H31.2909C31.4829 11.744 31.6163 11.8347 31.6909 12.016L32.8109 14.88C32.8323 14.9227 32.8483 14.9653 32.8589 15.008C32.8696 15.04 32.8749 15.072 32.8749 15.104C32.8749 15.2 32.8163 15.28 32.6989 15.344L32.1549 15.632ZM26.0749 14.496C26.0749 14.9227 26.2189 15.2693 26.5069 15.536C26.8056 15.8027 27.1683 16.0213 27.5949 16.192V13.104C27.1683 13.1147 26.8056 13.232 26.5069 13.456C26.2189 13.68 26.0749 14.0267 26.0749 14.496ZM31.1789 21.184C31.1789 20.6293 31.0136 20.2187 30.6829 19.952C30.3629 19.6747 29.8563 19.424 29.1629 19.2V22.848C29.8136 22.8267 30.3096 22.6613 30.6509 22.352C31.0029 22.032 31.1789 21.6427 31.1789 21.184ZM35.5094 15.52C35.5094 15.232 35.4881 14.9547 35.4454 14.688C35.4134 14.4213 35.3334 14.1973 35.2054 14.016C35.0774 13.824 34.8641 13.712 34.5654 13.68C34.4374 13.6693 34.3734 13.6 34.3734 13.472V12.928C34.3734 12.864 34.3894 12.8213 34.4214 12.8C34.4641 12.768 34.5228 12.7413 34.5974 12.72C35.4508 12.4427 36.1121 12.1653 36.5814 11.888C37.0508 11.6107 37.3921 11.392 37.6054 11.232C37.6374 11.2107 37.6641 11.2 37.6854 11.2H37.7014C37.7228 11.2 37.7334 11.2107 37.7334 11.232V16.576C37.8828 16.3627 38.1281 16.1813 38.4694 16.032C38.8214 15.872 39.2214 15.792 39.6694 15.792C40.1068 15.792 40.5494 15.8667 40.9974 16.016C41.4561 16.1653 41.8774 16.4053 42.2614 16.736C42.6454 17.0667 42.9548 17.504 43.1894 18.048C43.4348 18.5813 43.5574 19.2373 43.5574 20.016C43.5574 20.8267 43.3868 21.552 43.0454 22.192C42.7148 22.8213 42.2348 23.3173 41.6054 23.68C40.9761 24.032 40.2294 24.208 39.3654 24.208C38.6614 24.208 38.0161 24.0907 37.4294 23.856C36.8428 23.6107 36.3734 23.2213 36.0214 22.688C35.6801 22.144 35.5094 21.4347 35.5094 20.56V15.52ZM37.7334 20.896C37.7334 21.4187 37.8188 21.8453 37.9894 22.176C38.1601 22.5067 38.3841 22.752 38.6614 22.912C38.9388 23.072 39.2268 23.152 39.5254 23.152C40.0481 23.152 40.4481 23.0293 40.7254 22.784C41.0134 22.528 41.2108 22.1973 41.3174 21.792C41.4348 21.3867 41.4934 20.9653 41.4934 20.528C41.4934 19.504 41.2748 18.6933 40.8374 18.096C40.4108 17.4987 39.7868 17.2 38.9654 17.2C38.5174 17.2 38.1068 17.3387 37.7334 17.616V20.896ZM53.0514 21.04C53.0514 21.424 53.1101 21.7707 53.2274 22.08C53.3448 22.3787 53.6008 22.5547 53.9954 22.608C54.1234 22.6187 54.1874 22.688 54.1874 22.816V23.344C54.1874 23.4933 54.1074 23.568 53.9474 23.568C53.4248 23.568 52.9874 23.6 52.6354 23.664C52.2941 23.7173 51.9954 23.792 51.7394 23.888C51.4941 23.9733 51.2488 24.0693 51.0034 24.176C50.9608 24.1973 50.9234 24.208 50.8914 24.208H50.8434C50.8221 24.208 50.8114 24.1867 50.8114 24.144C50.8114 24.1013 50.8221 24 50.8434 23.84C50.8648 23.6693 50.8861 23.4827 50.9074 23.28C50.9394 23.0667 50.9661 22.8853 50.9874 22.736C50.9341 22.8747 50.8168 23.0613 50.6354 23.296C50.4648 23.5307 50.2088 23.744 49.8674 23.936C49.5368 24.1173 49.0994 24.208 48.5554 24.208C48.1928 24.208 47.8034 24.1333 47.3874 23.984C46.9821 23.8347 46.5981 23.5947 46.2354 23.264C45.8728 22.9333 45.5741 22.5013 45.3394 21.968C45.1154 21.424 45.0034 20.7627 45.0034 19.984C45.0034 18.992 45.1794 18.192 45.5314 17.584C45.8941 16.9653 46.3581 16.512 46.9234 16.224C47.4994 15.936 48.1074 15.792 48.7474 15.792C49.2701 15.792 49.7501 15.872 50.1874 16.032C50.6248 16.192 51.0088 16.4213 51.3394 16.72C51.6168 16.6027 51.8514 16.496 52.0434 16.4C52.2461 16.2933 52.4168 16.1867 52.5554 16.08C52.6088 16.0373 52.6621 15.9947 52.7154 15.952C52.7794 15.9093 52.8488 15.8667 52.9234 15.824C52.9554 15.8027 52.9821 15.792 53.0034 15.792H53.0194C53.0408 15.792 53.0514 15.8027 53.0514 15.824V21.04ZM50.8114 18.528C50.7794 18.3147 50.6994 18.08 50.5714 17.824C50.4541 17.5573 50.2728 17.3333 50.0274 17.152C49.7821 16.96 49.4514 16.864 49.0354 16.864C48.5234 16.864 48.1234 16.992 47.8354 17.248C47.5474 17.4933 47.3448 17.8133 47.2274 18.208C47.1208 18.6027 47.0674 19.024 47.0674 19.472C47.0674 20.496 47.2701 21.3067 47.6754 21.904C48.0914 22.5013 48.6248 22.8 49.2754 22.8C49.6594 22.8 49.9581 22.72 50.1714 22.56C50.3954 22.3893 50.5554 22.2187 50.6514 22.048C50.7474 21.8773 50.8008 21.776 50.8114 21.744V18.528ZM63.6463 15.52C63.689 15.5093 63.7316 15.504 63.7743 15.504C63.8276 15.504 63.8543 15.584 63.8543 15.744C63.8543 16.2667 63.753 16.672 63.5503 16.96C63.3583 17.248 63.081 17.392 62.7183 17.392C62.9743 17.8187 63.1023 18.3093 63.1023 18.864C63.1023 19.4293 62.9583 19.9467 62.6703 20.416C62.393 20.8747 61.993 21.2427 61.4703 21.52C60.9476 21.7867 60.3183 21.92 59.5823 21.92C58.8356 21.92 58.1903 21.7707 57.6463 21.472C57.5076 21.5787 57.4383 21.712 57.4383 21.872C57.4383 22.032 57.497 22.1707 57.6143 22.288C57.7316 22.3947 57.9556 22.4853 58.2863 22.56C58.6276 22.624 59.1236 22.672 59.7743 22.704C60.2436 22.7253 60.697 22.7733 61.1343 22.848C61.5823 22.9227 61.9823 23.0453 62.3343 23.216C62.6863 23.376 62.9636 23.6053 63.1663 23.904C63.3796 24.2027 63.4863 24.592 63.4863 25.072C63.4863 25.5093 63.369 25.8773 63.1343 26.176C62.9103 26.4853 62.601 26.7307 62.2063 26.912C61.8223 27.0933 61.3956 27.2267 60.9263 27.312C60.457 27.3973 59.9823 27.44 59.5023 27.44C58.8516 27.44 58.249 27.3707 57.6943 27.232C57.1503 27.0933 56.7076 26.88 56.3663 26.592C56.0356 26.304 55.8703 25.936 55.8703 25.488C55.8703 25.136 55.961 24.832 56.1423 24.576C56.3343 24.3307 56.5636 24.1333 56.8303 23.984C56.2863 23.6427 56.0143 23.1573 56.0143 22.528C56.0143 22.1653 56.105 21.856 56.2863 21.6C56.4783 21.344 56.7183 21.1573 57.0063 21.04C56.377 20.464 56.0623 19.7387 56.0623 18.864C56.0623 18.2987 56.201 17.7867 56.4783 17.328C56.7663 16.8587 57.1716 16.4853 57.6943 16.208C58.2276 15.9307 58.857 15.792 59.5823 15.792C60.0303 15.792 60.4356 15.8507 60.7983 15.968C61.1716 16.0747 61.5023 16.224 61.7903 16.416C61.8436 16.448 61.8863 16.4693 61.9183 16.48C61.961 16.48 61.993 16.48 62.0143 16.48C62.0996 16.48 62.169 16.4533 62.2223 16.4C62.2756 16.336 62.3023 16.224 62.3023 16.064V16.016C62.3023 15.8773 62.361 15.7973 62.4783 15.776L63.6463 15.52ZM59.5823 16.752C59.177 16.752 58.857 16.864 58.6223 17.088C58.3983 17.312 58.2383 17.5893 58.1423 17.92C58.057 18.24 58.0143 18.5547 58.0143 18.864C58.0143 19.1733 58.057 19.4933 58.1423 19.824C58.2383 20.144 58.3983 20.416 58.6223 20.64C58.857 20.864 59.177 20.976 59.5823 20.976C59.9876 20.976 60.2916 20.864 60.4943 20.64C60.7076 20.416 60.8516 20.144 60.9263 19.824C61.001 19.4933 61.0383 19.1733 61.0383 18.864C61.0383 18.5547 61.001 18.24 60.9263 17.92C60.8516 17.5893 60.7076 17.312 60.4943 17.088C60.2916 16.864 59.9876 16.752 59.5823 16.752ZM59.5183 26.336C60.3076 26.336 60.9103 26.2613 61.3263 26.112C61.753 25.9627 61.9663 25.7653 61.9663 25.52C61.9663 25.1787 61.7423 24.9493 61.2943 24.832C60.8463 24.7253 60.217 24.6507 59.4063 24.608C58.8303 24.576 58.3343 24.512 57.9183 24.416C57.6196 24.6187 57.4703 24.9013 57.4703 25.264C57.4703 25.424 57.529 25.584 57.6463 25.744C57.7636 25.9147 57.9716 26.0533 58.2703 26.16C58.569 26.2773 58.985 26.336 59.5183 26.336ZM71.3092 18.48C71.2452 18.512 71.1919 18.528 71.1492 18.528C71.0745 18.528 71.0052 18.4907 70.9412 18.416C70.4612 17.808 69.9599 17.3813 69.4372 17.136C68.9145 16.8907 68.4612 16.768 68.0772 16.768C67.7999 16.768 67.5439 16.8267 67.3092 16.944C67.0745 17.0613 66.9572 17.2747 66.9572 17.584C66.9572 17.8187 67.0425 18.016 67.2132 18.176C67.3945 18.3253 67.6239 18.448 67.9012 18.544C68.1785 18.64 68.4612 18.7253 68.7492 18.8C69.1652 18.896 69.5812 19.008 69.9972 19.136C70.4239 19.264 70.8132 19.4347 71.1652 19.648C71.5172 19.8507 71.7999 20.1067 72.0132 20.416C72.2372 20.7253 72.3492 21.1147 72.3492 21.584C72.3492 22.0853 72.2105 22.5333 71.9332 22.928C71.6665 23.3227 71.2825 23.6373 70.7812 23.872C70.2799 24.096 69.6825 24.208 68.9892 24.208C68.6585 24.208 68.3332 24.1653 68.0132 24.08C67.7039 24.0053 67.4105 23.904 67.1332 23.776C67.0692 23.744 67.0212 23.728 66.9892 23.728C66.9145 23.728 66.8772 23.7653 66.8772 23.84C66.8772 23.8613 66.8879 23.904 66.9092 23.968C66.9305 24.032 66.9412 24.0747 66.9412 24.096C66.9412 24.1813 66.8772 24.224 66.7492 24.224H66.1732C66.0559 24.224 65.9652 24.1707 65.9012 24.064L64.5252 21.488C64.4932 21.424 64.4772 21.376 64.4772 21.344C64.4772 21.2693 64.5199 21.2053 64.6052 21.152L65.1012 20.864C65.1652 20.832 65.2132 20.816 65.2452 20.816C65.3092 20.816 65.3679 20.864 65.4212 20.96C65.9439 21.7387 66.5145 22.2933 67.1332 22.624C67.7625 22.9547 68.4025 23.12 69.0532 23.12C70.0772 23.12 70.5892 22.816 70.5892 22.208C70.5892 21.9307 70.4612 21.7013 70.2052 21.52C69.9599 21.3387 69.6505 21.1893 69.2772 21.072C68.9145 20.9547 68.5465 20.8533 68.1732 20.768C67.4905 20.5973 66.9465 20.4053 66.5412 20.192C66.1359 19.968 65.8319 19.7333 65.6292 19.488C65.4265 19.232 65.2879 18.9813 65.2132 18.736C65.1492 18.48 65.1172 18.2347 65.1172 18C65.1172 17.36 65.3625 16.832 65.8532 16.416C66.3439 16 67.0105 15.792 67.8532 15.792C68.3545 15.792 68.7972 15.8613 69.1812 16C69.5652 16.128 69.8319 16.2347 69.9812 16.32C70.0239 16.3413 70.0559 16.352 70.0772 16.352C70.1092 16.352 70.1252 16.3307 70.1252 16.288C70.1252 16.256 70.1092 16.192 70.0772 16.096C70.0665 16.0427 70.0559 16.0053 70.0452 15.984C70.0452 15.952 70.0452 15.9253 70.0452 15.904C70.0452 15.7973 70.1145 15.744 70.2532 15.744H70.6692C70.8079 15.744 70.8985 15.8027 70.9412 15.92L71.7412 17.952C71.7732 18.016 71.7892 18.0693 71.7892 18.112C71.7892 18.1867 71.7465 18.2453 71.6612 18.288L71.3092 18.48Z" fill="black"/>
</svg>
