<svg width="16" height="16" viewBox="0 0 16 16" fill="none" xmlns="http://www.w3.org/2000/svg">
<g clip-path="url(#clip0_917_3456)">
<path d="M13.6889 1.01854C13.6716 0.979973 13.6435 0.947253 13.608 0.924368C13.5725 0.901484 13.5311 0.889421 13.4889 0.889652H7.29776C7.26057 0.889714 7.224 0.899104 7.19139 0.916963C7.15878 0.934822 7.13117 0.960579 7.11109 0.991874L2.35109 8.54743C2.32817 8.58033 2.31478 8.61892 2.3124 8.65894C2.31001 8.69896 2.31872 8.73887 2.33756 8.77426C2.35641 8.80965 2.38466 8.83915 2.41919 8.85951C2.45373 8.87987 2.49322 8.8903 2.53331 8.88965H5.9422L2.93331 14.7785C2.91604 14.8136 2.90792 14.8524 2.90971 14.8914C2.91151 14.9304 2.92315 14.9683 2.94357 15.0016C2.96399 15.0349 2.9925 15.0625 3.02646 15.0818C3.06042 15.101 3.09871 15.1114 3.13776 15.1119H4.47109C4.50193 15.1121 4.53248 15.1059 4.5608 15.0936C4.58911 15.0814 4.61456 15.0634 4.63553 15.0408L12.4444 6.60076C12.4754 6.56916 12.4963 6.52903 12.5043 6.4855C12.5124 6.44197 12.5072 6.39703 12.4896 6.35644C12.4719 6.31585 12.4425 6.28146 12.4052 6.25769C12.3678 6.23391 12.3242 6.22183 12.28 6.22298H9.28442L13.6533 1.2541C13.6815 1.22253 13.6998 1.18344 13.7062 1.14161C13.7125 1.09978 13.7065 1.05701 13.6889 1.01854Z" fill="#FFD44F"/>
</g>
<defs>
<clipPath id="clip0_917_3456">
<rect width="16" height="16" fill="white"/>
</clipPath>
</defs>
</svg>
