<svg width="16" height="16" viewBox="0 0 16 16" fill="none" xmlns="http://www.w3.org/2000/svg">
<g clip-path="url(#clip0_98_21)">
<path d="M13.6889 1.01824C13.6716 0.979668 13.6435 0.946948 13.608 0.924063C13.5725 0.901178 13.5311 0.889116 13.4889 0.889346H7.29776C7.26057 0.889408 7.224 0.898799 7.19139 0.916658C7.15878 0.934517 7.13117 0.960274 7.11109 0.991569L2.35109 8.54712C2.32817 8.58002 2.31478 8.61861 2.3124 8.65863C2.31001 8.69866 2.31872 8.73856 2.33756 8.77395C2.35641 8.80934 2.38466 8.83884 2.41919 8.8592C2.45373 8.87956 2.49322 8.88999 2.53331 8.88935H5.9422L2.93331 14.7782C2.91604 14.8133 2.90792 14.8521 2.90971 14.8911C2.91151 14.9301 2.92315 14.968 2.94357 15.0013C2.96399 15.0346 2.9925 15.0622 3.02646 15.0814C3.06042 15.1007 3.09871 15.1111 3.13776 15.1116H4.47109C4.50193 15.1118 4.53248 15.1056 4.5608 15.0933C4.58911 15.0811 4.61456 15.0631 4.63553 15.0405L12.4444 6.60046C12.4754 6.56886 12.4963 6.52872 12.5043 6.48519C12.5124 6.44166 12.5072 6.39672 12.4896 6.35613C12.4719 6.31554 12.4425 6.28116 12.4052 6.25738C12.3678 6.2336 12.3242 6.22152 12.28 6.22268H9.28442L13.6533 1.25379C13.6815 1.22222 13.6998 1.18314 13.7062 1.14131C13.7125 1.09947 13.7065 1.05671 13.6889 1.01824Z" fill="#FFD44F"/>
</g>
<defs>
<clipPath id="clip0_98_21">
<rect width="16" height="16" fill="white"/>
</clipPath>
</defs>
</svg>
