<svg width="24" height="24" viewBox="0 0 24 24" fill="none" xmlns="http://www.w3.org/2000/svg">
<circle cx="12" cy="12" r="12" fill="#FFD44F"/>
<path d="M12 5.5C10.2761 5.5 8.62279 6.18482 7.40381 7.40381C6.18482 8.62279 5.5 10.2761 5.5 12C5.5 13.0387 5.744 14.022 6.17867 14.8947C6.248 15.0347 6.25467 15.2433 6.17533 15.568C6.13332 15.732 6.08439 15.8941 6.02867 16.054L6.00867 16.1113C5.95933 16.258 5.906 16.418 5.866 16.5667C5.61133 17.518 6.482 18.3887 7.43267 18.134C7.582 18.094 7.74133 18.0407 7.88867 17.9913L7.946 17.9713C8.10586 17.9156 8.268 17.8667 8.432 17.8247C8.75667 17.7447 8.96533 17.7513 9.10533 17.8213C10.0044 18.2693 10.9955 18.5017 12 18.5C15.59 18.5 18.5 15.59 18.5 12C18.5 8.41 15.59 5.5 12 5.5Z" fill="#5D3014"/>
</svg>
