<svg width="26" height="26" viewBox="0 0 26 26" fill="none" xmlns="http://www.w3.org/2000/svg">
<circle cx="13" cy="13" r="12" fill="white" stroke="#FFD44F"/>
<path d="M21 15.75C21 17.2688 20.1567 18.5 18.5 18.5H7.5C5.84325 18.5 5 17.2688 5 15.75V10.25C5 8.73125 5.84325 7.5 7.5 7.5H18.5C20.1567 7.5 21 8.73125 21 10.25V15.75Z" fill="#EC1C24"/>
<path d="M8.24276 9.16404L8.77751 10.25L9.97626 10.4238L9.10951 11.2675L9.31376 12.4625L8.24276 11.8988L7.17151 12.4625L7.37601 11.2675L6.51001 10.4238L7.70676 10.25L8.24276 9.16404ZM10.1268 8.24854L10.275 8.54979L10.6085 8.59804L10.3678 8.83279L10.424 9.16404L10.1268 9.00754L9.82976 9.16404L9.88601 8.83279L9.64551 8.59804L9.97826 8.54979L10.1268 8.24854ZM11.0895 9.33203L11.238 9.63303L11.57 9.68154L11.3303 9.91679L11.3868 10.2475L11.0895 10.0913L10.7925 10.2475L10.8488 9.91679L10.6085 9.68154L10.9408 9.63303L11.0895 9.33203ZM11.0895 11.071L11.238 11.3728L11.57 11.421L11.3303 11.6558L11.3868 11.987L11.0895 11.831L10.7925 11.987L10.8488 11.6558L10.6085 11.421L10.9408 11.3728L11.0895 11.071ZM10.1268 12.2925L10.275 12.5938L10.6085 12.6418L10.3678 12.8763L10.424 13.208L10.1268 13.0525L9.82976 13.208L9.88601 12.8763L9.64551 12.6418L9.97826 12.5938L10.1268 12.2925Z" fill="#F9CB38"/>
</svg>
