<svg width="16" height="16" viewBox="0 0 16 16" fill="none" xmlns="http://www.w3.org/2000/svg">
<g clip-path="url(#clip0_577_5511)">
<path d="M7.9995 0.5C5.5475 0.5 3.6565 1.327 2.3815 2.7115C1.113 4.089 0.5 5.969 0.5 7.9995C0.5 10.03 1.113 11.9095 2.3815 13.2875C3.6565 14.672 5.5475 15.499 7.9995 15.499C10.4515 15.499 12.3425 14.672 13.617 13.2875C14.8855 11.91 15.499 10.03 15.499 7.9995C15.499 5.969 14.885 4.089 13.617 2.7115C12.342 1.327 10.4515 0.5 8 0.5" fill="#F7A7B8"/>
<path d="M5.5 3.49926C5.74726 3.4993 5.9907 3.43821 6.20865 3.32144C6.4266 3.20466 6.6123 3.03582 6.74923 2.82993C6.88616 2.62405 6.97006 2.38751 6.99349 2.14136C7.01691 1.89521 6.97912 1.64708 6.88348 1.41907C6.78784 1.19105 6.63732 0.990214 6.4453 0.834427C6.25329 0.678641 6.02575 0.572736 5.78291 0.526139C5.54008 0.479541 5.2895 0.493695 5.05346 0.567342C4.81742 0.640988 4.60325 0.771843 4.43 0.948262C3.94856 0.612108 3.36416 0.456143 2.77924 0.50771C2.19432 0.559276 1.64622 0.815082 1.23102 1.23028C0.81582 1.64549 0.560014 2.19359 0.508448 2.7785C0.456882 3.36342 0.612846 3.94782 0.949 4.42926C0.771036 4.60398 0.639442 4.82031 0.566127 5.05868C0.492811 5.29705 0.480087 5.54995 0.529106 5.79447C0.578125 6.039 0.68734 6.26745 0.846868 6.45915C1.0064 6.65084 1.2112 6.79974 1.44276 6.89236C1.67432 6.98498 1.92531 7.01841 2.17304 6.98961C2.42076 6.96082 2.6574 6.87071 2.86153 6.72745C3.06567 6.58418 3.23086 6.39228 3.34217 6.1691C3.45347 5.94592 3.50738 5.69851 3.499 5.44926C3.97949 5.35078 4.4205 5.1134 4.76732 4.76658C5.11414 4.41976 5.35152 3.97875 5.45 3.49826L5.5 3.49926ZM10.5 3.49926C10.2527 3.4993 10.0093 3.43821 9.79135 3.32144C9.5734 3.20466 9.3877 3.03582 9.25077 2.82993C9.11384 2.62405 9.02994 2.38751 9.00651 2.14136C8.98309 1.89521 9.02088 1.64708 9.11652 1.41907C9.21216 1.19105 9.36268 0.990214 9.5547 0.834427C9.74671 0.678641 9.97425 0.572736 10.2171 0.526139C10.4599 0.479541 10.7105 0.493695 10.9465 0.567342C11.1826 0.640988 11.3968 0.771843 11.57 0.948262C12.0514 0.612108 12.6358 0.456143 13.2208 0.50771C13.8057 0.559276 14.3538 0.815082 14.769 1.23028C15.1842 1.64549 15.44 2.19359 15.4916 2.7785C15.5431 3.36342 15.3872 3.94782 15.051 4.42926C15.229 4.60398 15.3606 4.82031 15.4339 5.05868C15.5072 5.29705 15.5199 5.54995 15.4709 5.79447C15.4219 6.039 15.3127 6.26745 15.1531 6.45915C14.9936 6.65084 14.7888 6.79974 14.5572 6.89236C14.3257 6.98498 14.0747 7.01841 13.827 6.98961C13.5792 6.96082 13.3426 6.87071 13.1385 6.72745C12.9343 6.58418 12.7691 6.39228 12.6578 6.1691C12.5465 5.94592 12.4926 5.69851 12.501 5.44926C12.0205 5.35078 11.5795 5.1134 11.2327 4.76658C10.8859 4.41976 10.6485 3.97875 10.55 3.49826L10.5 3.49926Z" fill="#F8312F"/>
<path d="M7.9995 14.999C12.6665 14.999 14.999 11.865 14.999 7.999C14.999 4.134 12.6665 1 7.999 1C3.3325 1 1 4.134 1 7.9995C1 11.865 3.332 14.999 7.9995 14.999Z" fill="white"/>
<path d="M12.131 8.92981C12.3555 9.03031 12.5 9.25381 12.5 9.49981C12.5 10.7488 11.976 11.7688 11.1295 12.4648C10.2945 13.1518 9.178 13.4998 8 13.4998C6.822 13.4998 5.705 13.1513 4.8705 12.4648C4.024 11.7693 3.5 10.7493 3.5 9.49981C3.50004 9.38523 3.53157 9.27287 3.59116 9.175C3.65074 9.07713 3.73609 8.99752 3.83786 8.94488C3.93963 8.89224 4.05392 8.86859 4.16823 8.87651C4.28254 8.88444 4.39246 8.92363 4.486 8.98981L4.491 8.99281L4.524 9.01481C4.57587 9.04743 4.62873 9.07844 4.6825 9.10781C4.828 9.18781 5.0525 9.29931 5.3515 9.41181C5.948 9.63681 6.8415 9.86831 7.9995 9.86831C9.3055 9.86631 10.196 9.63181 10.7435 9.41381C10.946 9.33606 11.1408 9.23964 11.3255 9.12581C11.3832 9.08848 11.423 9.06115 11.445 9.04381L11.465 9.02831C11.555 8.95005 11.6656 8.89918 11.7836 8.88173C11.9016 8.86427 12.0222 8.88096 12.131 8.92981ZM11.004 10.6513C10.311 10.8993 9.326 11.1163 8.001 11.1183H8C6.712 11.1183 5.6915 10.8683 4.975 10.6058C5.1321 10.9534 5.3682 11.2596 5.6645 11.4998C6.2375 11.9708 7.058 12.2498 8 12.2498C8.942 12.2498 9.7625 11.9708 10.3355 11.4998C10.6187 11.2702 10.8471 10.9804 11.004 10.6513Z" fill="#F70A8D"/>
<path d="M8 9C8.23206 9 8.45462 8.90781 8.61872 8.74372C8.78281 8.57962 8.875 8.35706 8.875 8.125C8.875 7.89294 8.78281 7.67038 8.61872 7.50628C8.45462 7.34219 8.23206 7.25 8 7.25C7.76794 7.25 7.54538 7.34219 7.38128 7.50628C7.21719 7.67038 7.125 7.89294 7.125 8.125C7.125 8.35706 7.21719 8.57962 7.38128 8.74372C7.54538 8.90781 7.76794 9 8 9Z" fill="#F8312F"/>
<path d="M7.5 6C7.5 6.66304 7.23661 7.29893 6.76777 7.76777C6.29893 8.23661 5.66304 8.5 5 8.5C4.33696 8.5 3.70107 8.23661 3.23223 7.76777C2.76339 7.29893 2.5 6.66304 2.5 6C2.5 5.33696 2.76339 4.70107 3.23223 4.23223C3.70107 3.76339 4.33696 3.5 5 3.5C5.66304 3.5 6.29893 3.76339 6.76777 4.23223C7.23661 4.70107 7.5 5.33696 7.5 6ZM13.5 6C13.5 6.66304 13.2366 7.29893 12.7678 7.76777C12.2989 8.23661 11.663 8.5 11 8.5C10.337 8.5 9.70107 8.23661 9.23223 7.76777C8.76339 7.29893 8.5 6.66304 8.5 6C8.5 5.33696 8.76339 4.70107 9.23223 4.23223C9.70107 3.76339 10.337 3.5 11 3.5C11.663 3.5 12.2989 3.76339 12.7678 4.23223C13.2366 4.70107 13.5 5.33696 13.5 6Z" fill="#0074BA"/>
<path d="M7.5 6.125C7.5 6.62228 7.30246 7.09919 6.95083 7.45083C6.59919 7.80246 6.12228 8 5.625 8C5.12772 8 4.65081 7.80246 4.29917 7.45083C3.94754 7.09919 3.75 6.62228 3.75 6.125C3.75 5.62772 3.94754 5.15081 4.29917 4.79917C4.65081 4.44754 5.12772 4.25 5.625 4.25C6.12228 4.25 6.59919 4.44754 6.95083 4.79917C7.30246 5.15081 7.5 5.62772 7.5 6.125ZM12.25 6.125C12.25 6.62228 12.0525 7.09919 11.7008 7.45083C11.3492 7.80246 10.8723 8 10.375 8C9.87772 8 9.4008 7.80246 9.04917 7.45083C8.69754 7.09919 8.5 6.62228 8.5 6.125C8.5 5.62772 8.69754 5.15081 9.04917 4.79917C9.4008 4.44754 9.87772 4.25 10.375 4.25C10.8723 4.25 11.3492 4.44754 11.7008 4.79917C12.0525 5.15081 12.25 5.62772 12.25 6.125Z" fill="white"/>
<path d="M7.25 6.125C7.25 6.27274 7.2209 6.41903 7.16436 6.55552C7.10783 6.69201 7.02496 6.81603 6.92049 6.9205C6.81603 7.02496 6.69201 7.10783 6.55552 7.16436C6.41903 7.2209 6.27274 7.25 6.125 7.25C5.97726 7.25 5.83097 7.2209 5.69448 7.16436C5.55799 7.10783 5.43397 7.02496 5.3295 6.9205C5.22504 6.81603 5.14217 6.69201 5.08564 6.55552C5.0291 6.41903 5 6.27274 5 6.125C5 5.82663 5.11853 5.54048 5.3295 5.3295C5.54048 5.11853 5.82663 5 6.125 5C6.42337 5 6.70952 5.11853 6.92049 5.3295C7.13147 5.54048 7.25 5.82663 7.25 6.125ZM11 6.125C11 6.27274 10.9709 6.41903 10.9144 6.55552C10.8578 6.69201 10.775 6.81603 10.6705 6.9205C10.566 7.02496 10.442 7.10783 10.3055 7.16436C10.169 7.2209 10.0227 7.25 9.875 7.25C9.72726 7.25 9.58097 7.2209 9.44448 7.16436C9.30799 7.10783 9.18397 7.02496 9.0795 6.9205C8.97504 6.81603 8.89217 6.69201 8.83563 6.55552C8.7791 6.41903 8.75 6.27274 8.75 6.125C8.75 5.82663 8.86853 5.54048 9.0795 5.3295C9.29048 5.11853 9.57663 5 9.875 5C10.1734 5 10.4595 5.11853 10.6705 5.3295C10.8815 5.54048 11 5.82663 11 6.125Z" fill="#402A32"/>
</g>
<defs>
<clipPath id="clip0_577_5511">
<rect width="16" height="16" fill="white"/>
</clipPath>
</defs>
</svg>
