<svg width="24" height="26" viewBox="0 0 24 26" fill="none" xmlns="http://www.w3.org/2000/svg">
<path d="M17.5536 17.6267C20.9077 13.4653 21.0568 8.02036 17.8865 5.46513C14.7163 2.9099 9.42724 4.21195 6.07314 8.37334C2.71904 12.5347 2.56999 17.9796 5.74023 20.5349C8.91047 23.0901 14.1995 21.788 17.5536 17.6267Z" fill="#FFD44F"/>
<path d="M17.8087 5.46531C16.5501 4.48486 14.9634 4.02436 13.3754 4.17864C14.6003 4.25392 15.7727 4.703 16.7344 5.46531C19.9044 8.02064 19.7557 13.4653 16.4017 17.6266C14.3551 20.166 11.5884 21.638 9.02173 21.8213C11.8651 22.0343 15.1394 20.525 17.4757 17.6266C20.8297 13.4653 20.9791 8.02031 17.8087 5.46531Z" fill="white"/>
<path d="M18.8787 5.81567C18.7118 5.68095 18.5385 5.55436 18.3594 5.43634C18.3475 5.43062 18.3352 5.42561 18.3227 5.42134C18.2653 5.39295 18.2011 5.38117 18.1374 5.38734C18.0719 5.39394 18.0103 5.4214 17.9617 5.46567C17.9508 5.47272 17.9404 5.4804 17.9304 5.48867C17.924 5.49534 17.922 5.50434 17.9164 5.51134C17.9107 5.51834 17.9027 5.52267 17.8974 5.53034C17.8918 5.54226 17.8869 5.55451 17.8827 5.56701C17.8539 5.625 17.8422 5.68994 17.8487 5.75434C17.8516 5.77508 17.8564 5.7955 17.863 5.81534C17.8747 5.85728 17.8964 5.89574 17.9264 5.92734C17.9335 5.93857 17.9413 5.94937 17.9497 5.95967C20.709 8.50501 20.4214 13.5383 17.2947 17.418C14.0607 21.4297 8.97137 22.7113 5.95004 20.2757C5.93046 20.2627 5.90956 20.2519 5.8877 20.2433L5.86937 20.2337C5.83752 20.2203 5.80378 20.212 5.76937 20.209L5.7427 20.2067C5.67155 20.205 5.60203 20.2281 5.54604 20.272C5.53479 20.2778 5.52388 20.2843 5.51337 20.2913C5.5067 20.297 5.50437 20.305 5.4987 20.3113C5.49337 20.317 5.48604 20.3197 5.48104 20.3257C5.4753 20.3355 5.47007 20.3456 5.46537 20.356C5.44922 20.3794 5.43611 20.4047 5.42637 20.4313C5.42317 20.442 5.4205 20.4528 5.41837 20.4637C5.41055 20.4961 5.40763 20.5294 5.4097 20.5627L5.4127 20.582C5.4176 20.6182 5.42841 20.6533 5.4447 20.686L5.4537 20.701C5.46361 20.7226 5.47579 20.743 5.49004 20.762C5.72477 21.0214 5.97956 21.2619 6.25204 21.4813C7.52577 22.4888 9.10854 23.0252 10.7324 22.9997C13.5957 22.9997 16.6957 21.5063 18.9084 18.7613C22.3897 14.4423 22.3764 8.63467 18.8787 5.81567Z" fill="#5D3014"/>
<path d="M18.175 5.71484C18.3439 5.82618 18.5086 5.9464 18.669 6.07551C22.029 8.78351 22.0197 14.3698 18.6487 18.5522C15.2777 22.7345 9.82069 23.9305 6.46069 21.2225C6.2018 21.0141 5.95972 20.7856 5.73669 20.5392" stroke="black" stroke-width="0.5" stroke-miterlimit="10"/>
<path d="M17.5536 17.6267C20.9077 13.4653 21.0568 8.02036 17.8865 5.46513C14.7163 2.9099 9.42724 4.21195 6.07314 8.37334C2.71904 12.5347 2.56999 17.9796 5.74023 20.5349C8.91047 23.0901 14.1995 21.788 17.5536 17.6267Z" stroke="black" stroke-width="0.5" stroke-miterlimit="10"/>
<path d="M17.5534 17.6275L18.6487 18.5525M16.4011 18.8759L17.3664 19.9135M15.1814 19.8905L15.974 20.9979M13.8434 20.7832L14.4674 21.8979M18.4411 16.3809L19.6041 17.1855" stroke="black" stroke-width="0.5" stroke-miterlimit="10"/>
<path d="M11.0056 17.5227C10.1441 17.5457 9.13001 17.3569 7.96331 16.9564C7.76667 16.8889 7.61782 16.7462 7.51677 16.5283C7.41899 16.3116 7.40216 16.1098 7.46629 15.923L9.25513 10.7122C9.3218 10.4859 9.39011 10.2603 9.46006 10.0352C9.53685 9.77945 9.61818 9.56924 9.70402 9.40454C9.85566 9.11223 10.2065 9.02387 10.7567 9.13945C11.0305 9.15286 11.4558 9.25857 12.0326 9.45657C12.652 9.66921 13.1766 10.0728 13.6063 10.6672C14.1118 11.361 14.2448 12.0569 14.0051 12.7549C13.8758 13.1318 13.6978 13.4261 13.4713 13.6377C13.2911 13.8104 13.0256 13.9702 12.6747 14.1172C12.9398 14.3803 13.1417 14.7098 13.2806 15.1055C13.44 15.5485 13.4605 15.9421 13.3424 16.2862C13.1928 16.7221 12.8134 17.0534 12.2043 17.2803C11.7976 17.4301 11.398 17.5109 11.0056 17.5227ZM11.5753 10.7888C11.1525 10.6437 10.8974 10.5597 10.8099 10.537L10.4571 11.5809L10.0978 12.6116C10.3836 12.75 10.6042 12.8385 10.7595 12.8772C11.7893 13.1428 12.4173 12.9462 12.6434 12.2875C12.7233 12.0548 12.6529 11.7797 12.4322 11.4621C12.205 11.1314 11.9194 10.9069 11.5753 10.7888ZM10.9573 14.4618C10.6591 14.3594 10.2173 14.1949 9.63202 13.9683L9.00086 15.8069C9.57468 15.9709 10.223 16.0726 10.9459 16.1119C11.5789 16.1461 11.9248 16.067 11.9835 15.8746C12.0603 15.6189 11.9522 15.3308 11.6592 15.0105C11.4314 14.7564 11.1974 14.5735 10.9573 14.4618Z" fill="black"/>
<path d="M10.2438 18.0527C10.1196 17.9867 10.0434 17.8845 10.0153 17.746C9.9939 17.6467 9.99951 17.5509 10.0322 17.4583C10.2051 16.9515 10.3115 16.6606 10.3514 16.5856C10.4128 16.47 10.4982 16.3945 10.6075 16.3592C10.7202 16.3229 10.8354 16.336 10.9532 16.3986C11.191 16.5248 11.2661 16.7171 11.1784 16.9753C11.0111 17.4714 10.9013 17.7688 10.8489 17.8673C10.7875 17.983 10.7005 18.059 10.5878 18.0953C10.4763 18.1295 10.3617 18.1153 10.2438 18.0527Z" fill="black"/>
<path d="M12.4017 10.1269C12.2775 10.0609 12.2013 9.95872 12.1732 9.82023C12.1518 9.72096 12.1574 9.62508 12.19 9.53256C12.363 9.02574 12.4694 8.73484 12.5092 8.65986C12.5707 8.54418 12.6561 8.46869 12.7654 8.43339C12.8781 8.39708 12.9933 8.41021 13.1111 8.47277C13.3489 8.59903 13.424 8.79129 13.3363 9.04956C13.169 9.54567 13.0592 9.84299 13.0068 9.94154C12.9454 10.0572 12.8584 10.1332 12.7457 10.1695C12.6342 10.2037 12.5196 10.1895 12.4017 10.1269Z" fill="black"/>
<path d="M8.76526 17.7695C8.64101 17.7035 8.56485 17.6013 8.53677 17.4628C8.51533 17.3635 8.52093 17.2677 8.55357 17.1751C8.72656 16.6683 8.83296 16.3774 8.87277 16.3024C8.9342 16.1868 9.01959 16.1113 9.12896 16.076C9.24161 16.0397 9.35685 16.0528 9.47467 16.1154C9.71246 16.2416 9.7875 16.4339 9.6998 16.6921C9.5325 17.1882 9.42269 17.4856 9.37037 17.5841C9.30894 17.6998 9.22191 17.7758 9.10926 17.8121C8.99775 17.8463 8.88308 17.8321 8.76526 17.7695Z" fill="black"/>
<path d="M11.2281 9.61129C11.1039 9.54532 11.0277 9.44309 10.9997 9.3046C10.9782 9.20534 10.9838 9.10945 11.0165 9.01694C11.1895 8.51011 11.2959 8.21921 11.3357 8.14424C11.3971 8.02855 11.4825 7.95306 11.5919 7.91776C11.7045 7.88146 11.8197 7.89459 11.9376 7.95715C12.1753 8.08341 12.2504 8.27567 12.1627 8.53393C11.9954 9.03004 11.8856 9.32737 11.8333 9.42591C11.7718 9.54159 11.6848 9.61759 11.5722 9.65389C11.4606 9.68805 11.346 9.67385 11.2281 9.61129Z" fill="black"/>
</svg>
