<svg width="16" height="16" viewBox="0 0 16 16" fill="none" xmlns="http://www.w3.org/2000/svg">
<path d="M7.95 14.85C4.4625 14.85 0.699997 12.6625 0.699997 7.8625C0.699997 3.0625 4.4625 0.875 7.95 0.875C9.8875 0.875 11.675 1.5125 13 2.675C14.4375 3.95 15.2 5.75 15.2 7.8625C15.2 9.975 14.4375 11.7625 13 13.0375C11.675 14.2 9.875 14.85 7.95 14.85Z" fill="url(#paint0_radial_577_5483)"/>
<path d="M13.9362 3.70898C14.6025 4.78398 14.95 6.06398 14.95 7.48773C14.95 9.60023 14.1875 11.3877 12.75 12.6627C11.425 13.8252 9.625 14.4752 7.7 14.4752C5.4425 14.4752 3.075 13.5565 1.6775 11.6077C3.0225 13.8152 5.5525 14.8502 7.95 14.8502C9.875 14.8502 11.675 14.2002 13 13.0377C14.4375 11.7627 15.2 9.97523 15.2 7.86273C15.2 6.27023 14.7662 4.85523 13.9362 3.70898Z" fill="#EB8F00"/>
<path d="M8 9.92578C9.35 9.92578 10.3 10.6258 10.5875 11.0633C10.6414 11.1311 10.6757 11.2124 10.6867 11.2983C10.6977 11.3842 10.685 11.4715 10.65 11.5508C10.595 11.652 10.49 11.7145 10.375 11.7133C10.3325 11.7108 10.29 11.702 10.25 11.6883C9.51827 11.4796 8.76091 11.3744 8 11.3758C7.2425 11.3708 6.4875 11.4808 5.7625 11.7008C5.7225 11.7145 5.68 11.7233 5.6375 11.7258C5.5225 11.7295 5.415 11.667 5.3625 11.5633C5.29 11.402 5.315 11.2133 5.425 11.0758C5.7 10.6258 6.6625 9.92578 8 9.92578Z" fill="#422B0D"/>
<path d="M4.625 13.0634C3.8125 13.0634 3.1875 12.2759 3.1875 11.6009C3.1875 11.1259 3.4 10.5759 3.7 9.81337C3.7375 9.70087 3.7875 9.58837 3.8375 9.46337C4.0125 9.01087 4.2125 8.56837 4.4375 8.13837C4.4825 8.05212 4.585 8.01462 4.675 8.05087C4.7125 8.06962 4.74375 8.10087 4.7625 8.13837C4.95 8.52587 5.1625 9.00087 5.375 9.48837C5.9 10.6634 6.05 11.1384 6.05 11.6134C6.0625 12.2759 5.425 13.0634 4.625 13.0634Z" fill="url(#paint1_radial_577_5483)"/>
<path d="M5.5 12.162C5.31625 12.4457 4.9 12.392 4.9 11.9207C4.9 11.6195 4.96125 10.072 5.22 10.2882C5.645 10.6407 5.765 11.7607 5.5 12.162Z" fill="#81D4FA"/>
<path d="M3.75 5.837C3.59375 6.06825 3.2225 5.91949 3.33125 5.6395C3.5875 5.03075 4.06625 4.54325 4.67125 4.27825C4.8925 4.17325 5.13125 4.107 5.375 4.08075C5.49875 4.05575 5.62 4.13575 5.645 4.2595C5.67 4.38325 5.59 4.5045 5.465 4.5295H5.44875C4.75111 4.76102 4.15237 5.22186 3.75 5.837ZM12.1612 5.837C12.3175 6.06825 12.6887 5.91949 12.58 5.6395C12.3229 5.02959 11.8408 4.54211 11.2337 4.27825C11.0125 4.17325 10.7762 4.107 10.5325 4.08075C10.4087 4.05575 10.2875 4.13575 10.2637 4.2595C10.2387 4.38325 10.3187 4.5045 10.4425 4.5295H10.4587C11.1575 4.7595 11.7587 5.22075 12.1612 5.837ZM5.58375 5.86699C5.06 5.86699 4.58375 6.30949 4.58375 7.0445C4.58375 7.7795 5.06 8.22074 5.58375 8.22074C6.1075 8.22074 6.58375 7.77824 6.58375 7.0445C6.58375 6.31075 6.1075 5.86699 5.58375 5.86699Z" fill="#422B0D"/>
<path d="M5.535 6.35906C5.44941 6.31834 5.35119 6.3131 5.26175 6.34447C5.17231 6.37585 5.0989 6.44129 5.0575 6.52656C4.99125 6.66531 5.02125 6.83156 5.1325 6.93906C5.31 7.02406 5.52375 6.94906 5.61 6.77156C5.67625 6.63281 5.64625 6.46656 5.535 6.35906Z" fill="#896024"/>
<path d="M10.375 5.86719C9.85125 5.86719 9.375 6.30969 9.375 7.04469C9.375 7.77969 9.85125 8.22094 10.375 8.22094C10.8988 8.22094 11.375 7.77844 11.375 7.04469C11.375 6.31094 10.9013 5.86719 10.375 5.86719Z" fill="#422B0D"/>
<path d="M10.3288 6.35906C10.2432 6.31834 10.1449 6.3131 10.0555 6.34447C9.96607 6.37585 9.89265 6.44129 9.85125 6.52656C9.785 6.66531 9.815 6.83156 9.92625 6.93906C10.1038 7.02406 10.3175 6.94906 10.4038 6.77156C10.47 6.63281 10.44 6.46656 10.3288 6.35906Z" fill="#896024"/>
<defs>
<radialGradient id="paint0_radial_577_5483" cx="0" cy="0" r="1" gradientUnits="userSpaceOnUse" gradientTransform="translate(7.95 7.8625) scale(7.12)">
<stop offset="0.5" stop-color="#FDE030"/>
<stop offset="0.92" stop-color="#F7C02B"/>
<stop offset="1" stop-color="#F4A223"/>
</radialGradient>
<radialGradient id="paint1_radial_577_5483" cx="0" cy="0" r="1" gradientUnits="userSpaceOnUse" gradientTransform="translate(4.7275 8.67498) scale(3.3025 5.08585)">
<stop offset="0.46" stop-color="#29B6F6"/>
<stop offset="1" stop-color="#1E88E5"/>
</radialGradient>
</defs>
</svg>
