<svg width="40" height="40" viewBox="0 0 40 40" fill="none" xmlns="http://www.w3.org/2000/svg">
<circle cx="20" cy="20" r="20" fill="#FFD44F"/>
<g clip-path="url(#clip0_542_85)">
<path fill-rule="evenodd" clip-rule="evenodd" d="M17.0584 10.256C15.7582 10.938 14.6945 11.5151 14.6947 11.5385C14.6953 11.5991 17.8151 13.19 17.9259 13.1862C17.9762 13.1845 18.3417 13.0151 18.7379 12.8098L19.4583 12.4367L20.2452 12.844L21.032 13.2513L22.3205 12.6683C24.2621 11.7898 24.4638 11.6935 24.4322 11.6612C24.3902 11.6183 23.6938 11.2416 21.8044 10.24C20.8913 9.75591 20.005 9.28129 19.8349 9.18525C19.6648 9.08921 19.5024 9.01195 19.474 9.01345C19.4456 9.01494 18.3585 9.57412 17.0584 10.256ZM11.3559 13.2294L10.0024 13.9333V17.0227C10.0024 18.7219 10.0202 20.1121 10.042 20.1121C10.0637 20.1121 10.7296 19.8215 11.5218 19.4662L12.962 18.8203V15.5639L13.6658 15.95C14.2081 16.2472 14.7507 16.5438 15.2937 16.8399L16.2179 17.3437L16.6291 17.1564C16.887 17.0388 17.1444 16.9201 17.4012 16.8002C17.5997 16.7071 18.087 16.4861 18.484 16.309C18.881 16.1319 19.2485 15.9537 19.3006 15.9131C19.3698 15.8592 18.5257 15.3895 16.1785 14.1758C14.4092 13.261 12.9049 12.5154 12.8355 12.519C12.7661 12.5225 12.1003 12.8422 11.3559 13.2294ZM24.6761 13.4271C23.7543 13.8461 22.9995 14.2056 22.9986 14.2261C22.9978 14.2466 23.5002 14.5474 24.1151 14.8945C24.73 15.2416 25.2331 15.5441 25.2331 15.5669C25.2331 15.5897 24.689 15.8551 24.0241 16.157C23.359 16.4587 21.6781 17.2231 20.2886 17.8555L15.6327 19.9746C14.4616 20.5077 13.4059 20.9882 13.2868 21.0425C10.8946 22.1329 10.2371 22.4354 10.1468 22.4874C10.056 22.5397 10.0354 22.8434 10.0193 24.3681L10 26.1866L11.2103 26.8076L12.4206 27.4285L14.0989 26.6658C15.0219 26.2464 15.7771 25.8813 15.7771 25.8544C15.7771 25.8276 15.6065 25.7157 15.3982 25.6056C15.1897 25.4956 14.7593 25.2519 14.4417 25.0641C14.1241 24.8763 13.8075 24.7039 13.7379 24.6811C13.6684 24.6583 13.6126 24.6184 13.6137 24.5924C13.6149 24.5665 14.3539 24.213 15.2559 23.8069C17.0078 23.0182 18.3486 22.4103 21.227 21.0996C22.5141 20.5137 23.8013 19.9281 25.0888 19.3428C26.2202 18.8286 27.5358 18.228 28.0122 18.0082L28.8784 17.6086L28.8976 15.7694L28.917 13.9303L27.6894 13.2958C27.0143 12.9469 26.4371 12.6623 26.4069 12.6634C26.3767 12.6643 25.5978 13.0079 24.6761 13.4271ZM28.5495 20.0621C28.3686 20.1511 28.0113 20.3177 27.7555 20.4323C27.4997 20.5469 27.0143 20.7674 26.6768 20.9224L26.0632 21.2042L26.0492 22.8189C26.0415 23.7069 26.009 24.4295 25.9771 24.4248C25.9044 24.414 24.7545 23.8201 23.5985 23.1965C22.7642 22.7464 22.7118 22.7285 22.5158 22.8262C22.4025 22.8828 21.725 23.1887 21.0104 23.5062C20.2958 23.8236 19.6878 24.104 19.6592 24.1294C19.6307 24.1548 21.0689 24.9397 22.8554 25.8738L26.1035 27.5721L27.491 26.8494C28.254 26.4519 28.9029 26.0894 28.9327 26.0438C29 25.9413 28.9942 19.8863 28.9269 19.8945C28.9003 19.8977 28.7304 19.9732 28.5495 20.0621ZM20.866 27.1691C20.6254 27.2733 20.3848 27.3776 20.1442 27.4821C19.4178 27.7986 19.5602 27.8091 18.696 27.3759C18.1204 27.0874 17.8723 26.9984 17.7646 27.0416C17.6838 27.074 16.9886 27.3889 16.2196 27.7414C15.4506 28.0939 14.7948 28.3823 14.7621 28.3823C14.4395 28.3823 14.9759 28.705 17.0457 29.7563L19.4731 30.9891L20.4944 30.4814C21.0561 30.2021 22.1891 29.6429 23.0122 29.2388C23.8352 28.8345 24.4984 28.4932 24.486 28.4804C24.4735 28.4675 23.7839 28.111 22.9534 27.688L21.4435 26.919L20.866 27.1691Z" fill="#5D3014"/>
</g>
<defs>
<clipPath id="clip0_542_85">
<rect width="19" height="22" fill="white" transform="translate(10 9)"/>
</clipPath>
</defs>
</svg>
