<svg width="25" height="24" viewBox="0 0 25 24" fill="none" xmlns="http://www.w3.org/2000/svg">
<path opacity="0.15" d="M5.26343 22.52C5.26343 22.78 6.05466 23.0292 7.46306 23.213C8.87145 23.3968 10.7817 23.5 12.7734 23.5C14.7652 23.5 16.6754 23.3968 18.0838 23.213C19.4922 23.0292 20.2834 22.78 20.2834 22.52C20.2834 22.2601 19.4922 22.0109 18.0838 21.8271C16.6754 21.6433 14.7652 21.54 12.7734 21.54C10.7817 21.54 8.87145 21.6433 7.46306 21.8271C6.05466 22.0109 5.26343 22.2601 5.26343 22.52Z" fill="#45413C"/>
<path d="M12.7734 10.3996V22.2496C13.1769 22.2491 13.5769 22.1745 13.9534 22.0296L21.6484 19.0296C22.0163 18.8867 22.3325 18.636 22.5555 18.3103C22.7785 17.9847 22.8981 17.5993 22.8984 17.2046V7.82465C22.8974 7.39586 22.7551 6.97938 22.4934 6.63965L12.7734 10.3996ZM3.05344 6.63965C2.79182 6.97938 2.64948 7.39586 2.64844 7.82465V17.2246C2.64882 17.6193 2.76834 18.0047 2.99138 18.3303C3.21441 18.656 3.53056 18.9067 3.89844 19.0496L11.5934 22.0496C11.9713 22.1877 12.3712 22.2555 12.7734 22.2496V10.3996L3.05344 6.63965Z" fill="white"/>
<path d="M12.7734 10.3996V22.2496C13.1769 22.2491 13.5769 22.1745 13.9534 22.0296L21.6484 19.0296C22.0163 18.8867 22.3325 18.636 22.5555 18.3103C22.7785 17.9847 22.8981 17.5993 22.8984 17.2046V7.82465C22.8974 7.39586 22.7551 6.97938 22.4934 6.63965L12.7734 10.3996ZM3.05344 6.63965C2.79182 6.97938 2.64948 7.39586 2.64844 7.82465V17.2246C2.64882 17.6193 2.76834 18.0047 2.99138 18.3303C3.21441 18.656 3.53056 18.9067 3.89844 19.0496L11.5934 22.0496C11.9713 22.1877 12.3712 22.2555 12.7734 22.2496V10.3996L3.05344 6.63965Z" fill="#FFD44F"/>
<path d="M21.6484 17.2001L13.9534 20.2001C13.5756 20.3382 13.1757 20.4059 12.7734 20.4001V22.2501C13.1769 22.2495 13.5769 22.175 13.9534 22.0301L21.6484 19.0301C22.0163 18.8871 22.3325 18.6364 22.5555 18.3108C22.7785 17.9852 22.8981 17.5998 22.8984 17.2051V15.3701C22.8977 15.7653 22.7781 16.1512 22.5552 16.4776C22.3322 16.8039 22.0163 17.0557 21.6484 17.2001ZM3.89844 17.2001C3.53056 17.0557 3.21463 16.8039 2.99171 16.4776C2.76879 16.1512 2.64918 15.7653 2.64844 15.3701V17.2251C2.64882 17.6198 2.76834 18.0052 2.99138 18.3308C3.21441 18.6564 3.53056 18.9071 3.89844 19.0501L11.5934 22.0501C11.9713 22.1881 12.3712 22.2559 12.7734 22.2501V20.4001C12.37 20.3995 11.97 20.325 11.5934 20.1801L3.89844 17.2001Z" fill="white"/>
<path d="M12.7734 10.3996V22.2496M12.7734 10.3996L22.4934 6.63965C22.7551 6.97938 22.8974 7.39586 22.8984 7.82465V17.2046C22.8981 17.5993 22.7785 17.9847 22.5555 18.3103C22.3325 18.636 22.0163 18.8867 21.6484 19.0296L13.9534 22.0296C13.5769 22.1745 13.1769 22.2491 12.7734 22.2496M12.7734 10.3996L3.05344 6.63965C2.79182 6.97938 2.64948 7.39586 2.64844 7.82465V17.2246C2.64882 17.6193 2.76834 18.0047 2.99138 18.3303C3.21441 18.656 3.53056 18.9067 3.89844 19.0496L11.5934 22.0496C11.9713 22.1877 12.3712 22.2555 12.7734 22.2496" stroke="#45413C" stroke-width="0.5" stroke-linecap="round" stroke-linejoin="round"/>
<path d="M12.7735 10.4001L22.4935 6.6401C22.2745 6.35465 21.9826 6.13355 21.6485 6.0001L13.9535 3.0001C13.1946 2.70439 12.3523 2.70439 11.5935 3.0001L3.89847 6.0001C3.56377 6.13494 3.27179 6.35781 3.05347 6.6451L12.7735 10.4001Z" fill="#FFD44F"/>
<path d="M21.6485 6L21.0085 5.755L13.7735 8.545C13.1208 8.7999 12.3961 8.7999 11.7435 8.545L4.53847 5.75L3.89847 6C3.56377 6.13484 3.27179 6.35771 3.05347 6.645L12.7735 10.4L22.4935 6.64C22.2745 6.35455 21.9826 6.13345 21.6485 6Z" fill="white"/>
<path d="M12.7735 10.4001L22.4935 6.6401C22.2745 6.35465 21.9826 6.13355 21.6485 6.0001L13.9535 3.0001C13.1946 2.70439 12.3523 2.70439 11.5935 3.0001L3.89847 6.0001C3.56377 6.13494 3.27179 6.35781 3.05347 6.6451L12.7735 10.4001Z" stroke="#45413C" stroke-width="0.5" stroke-linecap="round" stroke-linejoin="round"/>
<path d="M10.4885 6.44484C10.4885 6.70476 10.7292 6.95402 11.1577 7.13781C11.5862 7.32159 12.1674 7.42484 12.7735 7.42484C13.3795 7.42484 13.9607 7.32159 14.3892 7.13781C14.8177 6.95402 15.0585 6.70476 15.0585 6.44484C15.0585 6.18493 14.8177 5.93566 14.3892 5.75188C13.9607 5.56809 13.3795 5.46484 12.7735 5.46484C12.1674 5.46484 11.5862 5.56809 11.1577 5.75188C10.7292 5.93566 10.4885 6.18493 10.4885 6.44484Z" fill="#5D3014" stroke="#45413C" stroke-width="0.5" stroke-linecap="round" stroke-linejoin="round"/>
<path d="M6.55842 12.0402C6.67342 12.8452 6.40842 13.5402 5.96342 13.6152C5.51842 13.6902 5.05842 13.0802 4.96342 12.2752C4.86842 11.4702 5.11342 10.7752 5.55842 10.7052C6.00342 10.6352 6.44342 11.2402 6.55842 12.0402ZM19.9484 10.4002C19.8334 11.2002 20.0984 11.9002 20.5484 11.9702C20.9984 12.0402 21.4484 11.4352 21.5484 10.6302C21.6484 9.8252 21.3984 9.1302 20.9534 9.0602C20.5084 8.9902 20.0634 9.5952 19.9484 10.4002ZM14.4334 18.2352C14.3184 19.0402 14.5834 19.7352 15.0334 19.8102C15.4834 19.8852 15.9334 19.2752 16.0334 18.4702C16.1334 17.6652 15.8834 16.9702 15.4384 16.9002C14.9934 16.8302 14.5484 17.4352 14.4334 18.2352ZM17.3334 14.3402C17.2184 15.1402 17.4884 15.8402 17.9334 15.9102C18.3784 15.9802 18.8334 15.3752 18.9334 14.5752C19.0334 13.7752 18.7784 13.0752 18.3334 13.0002C17.8884 12.9252 17.4534 13.5352 17.3334 14.3402ZM9.51842 16.6252C9.63342 17.4302 9.36842 18.1252 8.91842 18.1952C8.46842 18.2652 8.01842 17.6602 7.91842 16.8602C7.81842 16.0602 8.06842 15.3602 8.51342 15.2852C8.95842 15.2102 9.40342 15.8202 9.51842 16.6252Z" fill="#656769" stroke="#45413C" stroke-width="0.5" stroke-linecap="round" stroke-linejoin="round"/>
</svg>
