<svg width="16" height="16" viewBox="0 0 16 16" fill="none" xmlns="http://www.w3.org/2000/svg">
<path d="M4.445 5.09148C4.37375 5.85148 4.32375 7.19648 4.7725 7.76898C4.7725 7.76898 4.56125 6.29148 6.455 4.43773C7.2175 3.69148 7.39375 2.67648 7.1275 1.91523C6.97625 1.48398 6.7 1.12773 6.46 0.878982C6.32 0.732732 6.4275 0.491482 6.63125 0.500232C7.86375 0.555232 9.86125 0.897731 10.71 3.02773C11.0825 3.96273 11.11 4.92898 10.9325 5.91148C10.82 6.53898 10.42 7.93398 11.3325 8.10523C11.9838 8.22773 12.2987 7.71023 12.44 7.33773C12.4987 7.18273 12.7025 7.14398 12.8125 7.26773C13.9125 8.51898 14.0063 9.99273 13.7788 11.2615C13.3388 13.714 10.855 15.499 8.3875 15.499C5.305 15.499 2.85125 13.7352 2.215 10.5427C1.95875 9.25398 2.08875 6.70398 4.07625 4.90398C4.22375 4.76898 4.465 4.88898 4.445 5.09148Z" fill="url(#paint0_radial_577_5507)"/>
<path d="M9.51374 9.67764C8.37749 8.21514 8.88624 6.54639 9.16499 5.88139C9.20249 5.79389 9.10249 5.71139 9.02374 5.76514C8.53499 6.09764 7.53374 6.88014 7.06749 7.98139C6.43624 9.47014 6.48124 10.1989 6.85499 11.0889C7.07999 11.6251 6.81874 11.7389 6.68749 11.7589C6.55999 11.7789 6.44249 11.6939 6.34874 11.6051C6.07909 11.3462 5.88691 11.0172 5.79374 10.6551C5.77374 10.5776 5.67249 10.5564 5.62624 10.6201C5.27624 11.1039 5.09499 11.8801 5.08624 12.4289C5.05874 14.1251 6.45999 15.5001 8.15499 15.5001C10.2912 15.5001 11.8475 13.1376 10.62 11.1626C10.2637 10.5876 9.92874 10.2114 9.51374 9.67764Z" fill="url(#paint1_radial_577_5507)"/>
<defs>
<radialGradient id="paint0_radial_577_5507" cx="0" cy="0" r="1" gradientUnits="userSpaceOnUse" gradientTransform="translate(7.77697 15.5378) rotate(-179.751) scale(8.82346 14.4775)">
<stop offset="0.314" stop-color="#FF9800"/>
<stop offset="0.662" stop-color="#FF6D00"/>
<stop offset="0.972" stop-color="#F44336"/>
</radialGradient>
<radialGradient id="paint1_radial_577_5507" cx="0" cy="0" r="1" gradientUnits="userSpaceOnUse" gradientTransform="translate(8.27249 6.75743) rotate(90.5787) scale(9.23205 6.94781)">
<stop offset="0.214" stop-color="#FFF176"/>
<stop offset="0.328" stop-color="#FFF27D"/>
<stop offset="0.487" stop-color="#FFF48F"/>
<stop offset="0.672" stop-color="#FFF7AD"/>
<stop offset="0.793" stop-color="#FFF9C4"/>
<stop offset="0.822" stop-color="#FFF8BD" stop-opacity="0.804"/>
<stop offset="0.863" stop-color="#FFF6AB" stop-opacity="0.529"/>
<stop offset="0.91" stop-color="#FFF38D" stop-opacity="0.209"/>
<stop offset="0.941" stop-color="#FFF176" stop-opacity="0"/>
</radialGradient>
</defs>
</svg>
