<svg width="26" height="26" viewBox="0 0 26 26" fill="none" xmlns="http://www.w3.org/2000/svg">
<circle cx="13" cy="13" r="12" fill="white" stroke="#FFD44F"/>
<g clip-path="url(#clip0_127_37)">
<path d="M5.94116 16.5294C5.94116 16.9454 6.10643 17.3444 6.4006 17.6386C6.69478 17.9327 7.09376 18.098 7.50979 18.098H18.4902C18.9062 18.098 19.3052 17.9327 19.5994 17.6386C19.8935 17.3444 20.0588 16.9454 20.0588 16.5294V14.5686H5.94116V16.5294Z" fill="#138808"/>
<path d="M20.0588 11.4313V9.47054C20.0588 9.05452 19.8935 8.65553 19.5994 8.36136C19.3052 8.06718 18.9062 7.90192 18.4902 7.90192H7.50979C7.09376 7.90192 6.69478 8.06718 6.4006 8.36136C6.10643 8.65553 5.94116 9.05452 5.94116 9.47054V11.4313H20.0588Z" fill="#FF9933"/>
<path d="M5.94116 11.3008H20.0588V14.6996H5.94116V11.3008Z" fill="#F7F7F7"/>
<path d="M13 14.5686C13.8664 14.5686 14.5687 13.8663 14.5687 13C14.5687 12.1336 13.8664 11.4313 13 11.4313C12.1337 11.4313 11.4314 12.1336 11.4314 13C11.4314 13.8663 12.1337 14.5686 13 14.5686Z" fill="#000080"/>
<path d="M13 14.3235C13.731 14.3235 14.3236 13.7309 14.3236 13C14.3236 12.269 13.731 11.6765 13 11.6765C12.2691 11.6765 11.6765 12.269 11.6765 13C11.6765 13.7309 12.2691 14.3235 13 14.3235Z" fill="#F7F7F7"/>
<path d="M13.0392 12.5098L13 12.7647L12.9608 12.5098L13 11.7451L13.0392 12.5098ZM12.6753 11.7878L12.8353 12.5364L12.9392 12.7725L12.911 12.5164L12.6753 11.7878ZM12.3726 11.9133L12.7208 12.5949L12.8824 12.796L12.789 12.5556L12.3726 11.9133ZM12.1126 12.1125L12.6255 12.6811L12.8337 12.8337L12.6812 12.6254L12.1126 12.1125ZM11.9134 12.3725L12.5557 12.789L12.7961 12.8823L12.5949 12.7207L11.9134 12.3725ZM11.7879 12.6753L12.5165 12.9109L12.7726 12.9392L12.5365 12.8353L11.7879 12.6753ZM11.7451 13L12.5098 13.0392L12.7647 13L12.5098 12.9607L11.7451 13ZM11.7879 13.3247L12.5365 13.1647L12.7726 13.0607L12.5165 13.089L11.7879 13.3247ZM11.9134 13.6274L12.5949 13.2792L12.7961 13.1176L12.5557 13.2109L11.9134 13.6274ZM12.1126 13.8874L12.6812 13.3745L12.8337 13.1662L12.6255 13.3188L12.1126 13.8874ZM12.3726 14.0866L12.789 13.4443L12.8824 13.2039L12.7208 13.4051L12.3726 14.0866ZM12.6753 14.2121L12.911 13.4835L12.9392 13.2274L12.8353 13.4635L12.6753 14.2121ZM13 14.2549L13.0392 13.4902L13 13.2353L12.9608 13.4902L13 14.2549ZM13.3247 14.2121L13.1647 13.4635L13.0608 13.2274L13.089 13.4835L13.3247 14.2121ZM13.6275 14.0866L13.2792 13.4051L13.1177 13.2039L13.211 13.4443L13.6275 14.0866ZM13.8875 13.8874L13.3745 13.3188L13.1663 13.1662L13.3188 13.3745L13.8875 13.8874ZM14.0867 13.6274L13.4443 13.2109L13.2039 13.1176L13.4051 13.2792L14.0867 13.6274ZM14.2122 13.3247L13.4835 13.089L13.2275 13.0607L13.4635 13.1647L14.2122 13.3247ZM14.2549 13L13.4902 12.9607L13.2353 13L13.4902 13.0392L14.2549 13ZM14.2122 12.6753L13.4635 12.8353L13.2275 12.9392L13.4835 12.9109L14.2122 12.6753ZM14.0867 12.3725L13.4051 12.7207L13.2039 12.8823L13.4443 12.789L14.0867 12.3725ZM13.8875 12.1125L13.3188 12.6254L13.1663 12.8337L13.3745 12.6811L13.8875 12.1125ZM13.6275 11.9133L13.211 12.5556L13.1177 12.796L13.2792 12.5949L13.6275 11.9133ZM13.3247 11.7878L13.089 12.5164L13.0608 12.7725L13.1647 12.5364L13.3247 11.7878Z" fill="#6666B3"/>
<path d="M12.8275 11.7683C12.8708 11.7683 12.9059 11.7331 12.9059 11.6898C12.9059 11.6465 12.8708 11.6114 12.8275 11.6114C12.7841 11.6114 12.749 11.6465 12.749 11.6898C12.749 11.7331 12.7841 11.7683 12.8275 11.7683Z" fill="#000080"/>
<path d="M12.4941 11.8577C12.5374 11.8577 12.5725 11.8226 12.5725 11.7792C12.5725 11.7359 12.5374 11.7008 12.4941 11.7008C12.4508 11.7008 12.4156 11.7359 12.4156 11.7792C12.4156 11.8226 12.4508 11.8577 12.4941 11.8577Z" fill="#000080"/>
<path d="M12.1953 12.0298C12.2386 12.0298 12.2737 11.9947 12.2737 11.9514C12.2737 11.9081 12.2386 11.873 12.1953 11.873C12.1519 11.873 12.1168 11.9081 12.1168 11.9514C12.1168 11.9947 12.1519 12.0298 12.1953 12.0298Z" fill="#000080"/>
<path d="M11.9514 12.2737C11.9947 12.2737 12.0298 12.2386 12.0298 12.1953C12.0298 12.152 11.9947 12.1169 11.9514 12.1169C11.908 12.1169 11.8729 12.152 11.8729 12.1953C11.8729 12.2386 11.908 12.2737 11.9514 12.2737Z" fill="#000080"/>
<path d="M11.7791 12.5726C11.8224 12.5726 11.8575 12.5375 11.8575 12.4941C11.8575 12.4508 11.8224 12.4157 11.7791 12.4157C11.7358 12.4157 11.7007 12.4508 11.7007 12.4941C11.7007 12.5375 11.7358 12.5726 11.7791 12.5726Z" fill="#000080"/>
<path d="M11.6898 12.9059C11.7331 12.9059 11.7682 12.8708 11.7682 12.8275C11.7682 12.7841 11.7331 12.749 11.6898 12.749C11.6464 12.749 11.6113 12.7841 11.6113 12.8275C11.6113 12.8708 11.6464 12.9059 11.6898 12.9059Z" fill="#000080"/>
<path d="M11.6898 13.251C11.7331 13.251 11.7682 13.2159 11.7682 13.1725C11.7682 13.1292 11.7331 13.0941 11.6898 13.0941C11.6464 13.0941 11.6113 13.1292 11.6113 13.1725C11.6113 13.2159 11.6464 13.251 11.6898 13.251Z" fill="#000080"/>
<path d="M11.7791 13.5844C11.8224 13.5844 11.8575 13.5492 11.8575 13.5059C11.8575 13.4626 11.8224 13.4275 11.7791 13.4275C11.7358 13.4275 11.7007 13.4626 11.7007 13.5059C11.7007 13.5492 11.7358 13.5844 11.7791 13.5844Z" fill="#000080"/>
<path d="M11.9514 13.8832C11.9947 13.8832 12.0298 13.8481 12.0298 13.8048C12.0298 13.7614 11.9947 13.7263 11.9514 13.7263C11.908 13.7263 11.8729 13.7614 11.8729 13.8048C11.8729 13.8481 11.908 13.8832 11.9514 13.8832Z" fill="#000080"/>
<path d="M12.1953 14.1271C12.2386 14.1271 12.2737 14.092 12.2737 14.0486C12.2737 14.0053 12.2386 13.9702 12.1953 13.9702C12.1519 13.9702 12.1168 14.0053 12.1168 14.0486C12.1168 14.092 12.1519 14.1271 12.1953 14.1271Z" fill="#000080"/>
<path d="M12.4941 14.2993C12.5374 14.2993 12.5725 14.2641 12.5725 14.2208C12.5725 14.1775 12.5374 14.1424 12.4941 14.1424C12.4508 14.1424 12.4156 14.1775 12.4156 14.2208C12.4156 14.2641 12.4508 14.2993 12.4941 14.2993Z" fill="#000080"/>
<path d="M12.8275 14.3886C12.8708 14.3886 12.9059 14.3535 12.9059 14.3102C12.9059 14.2669 12.8708 14.2318 12.8275 14.2318C12.7841 14.2318 12.749 14.2669 12.749 14.3102C12.749 14.3535 12.7841 14.3886 12.8275 14.3886Z" fill="#000080"/>
<path d="M13.1725 14.3886C13.2159 14.3886 13.251 14.3535 13.251 14.3102C13.251 14.2669 13.2159 14.2318 13.1725 14.2318C13.1292 14.2318 13.0941 14.2669 13.0941 14.3102C13.0941 14.3535 13.1292 14.3886 13.1725 14.3886Z" fill="#000080"/>
<path d="M13.5058 14.2993C13.5491 14.2993 13.5842 14.2641 13.5842 14.2208C13.5842 14.1775 13.5491 14.1424 13.5058 14.1424C13.4625 14.1424 13.4274 14.1775 13.4274 14.2208C13.4274 14.2641 13.4625 14.2993 13.5058 14.2993Z" fill="#000080"/>
<path d="M13.8046 14.1271C13.8479 14.1271 13.8831 14.092 13.8831 14.0486C13.8831 14.0053 13.8479 13.9702 13.8046 13.9702C13.7613 13.9702 13.7262 14.0053 13.7262 14.0486C13.7262 14.092 13.7613 14.1271 13.8046 14.1271Z" fill="#000080"/>
<path d="M14.0485 13.8832C14.0918 13.8832 14.127 13.8481 14.127 13.8048C14.127 13.7614 14.0918 13.7263 14.0485 13.7263C14.0052 13.7263 13.9701 13.7614 13.9701 13.8048C13.9701 13.8481 14.0052 13.8832 14.0485 13.8832Z" fill="#000080"/>
<path d="M14.2208 13.5844C14.2641 13.5844 14.2992 13.5492 14.2992 13.5059C14.2992 13.4626 14.2641 13.4275 14.2208 13.4275C14.1774 13.4275 14.1423 13.4626 14.1423 13.5059C14.1423 13.5492 14.1774 13.5844 14.2208 13.5844Z" fill="#000080"/>
<path d="M14.3101 13.251C14.3534 13.251 14.3886 13.2159 14.3886 13.1725C14.3886 13.1292 14.3534 13.0941 14.3101 13.0941C14.2668 13.0941 14.2317 13.1292 14.2317 13.1725C14.2317 13.2159 14.2668 13.251 14.3101 13.251Z" fill="#000080"/>
<path d="M14.3101 12.9059C14.3534 12.9059 14.3886 12.8708 14.3886 12.8275C14.3886 12.7841 14.3534 12.749 14.3101 12.749C14.2668 12.749 14.2317 12.7841 14.2317 12.8275C14.2317 12.8708 14.2668 12.9059 14.3101 12.9059Z" fill="#000080"/>
<path d="M14.2208 12.5726C14.2641 12.5726 14.2992 12.5375 14.2992 12.4941C14.2992 12.4508 14.2641 12.4157 14.2208 12.4157C14.1774 12.4157 14.1423 12.4508 14.1423 12.4941C14.1423 12.5375 14.1774 12.5726 14.2208 12.5726Z" fill="#000080"/>
<path d="M14.0485 12.2737C14.0918 12.2737 14.127 12.2386 14.127 12.1953C14.127 12.152 14.0918 12.1169 14.0485 12.1169C14.0052 12.1169 13.9701 12.152 13.9701 12.1953C13.9701 12.2386 14.0052 12.2737 14.0485 12.2737Z" fill="#000080"/>
<path d="M13.8046 12.0298C13.8479 12.0298 13.8831 11.9947 13.8831 11.9514C13.8831 11.9081 13.8479 11.873 13.8046 11.873C13.7613 11.873 13.7262 11.9081 13.7262 11.9514C13.7262 11.9947 13.7613 12.0298 13.8046 12.0298Z" fill="#000080"/>
<path d="M13.5058 11.8577C13.5491 11.8577 13.5842 11.8226 13.5842 11.7792C13.5842 11.7359 13.5491 11.7008 13.5058 11.7008C13.4625 11.7008 13.4274 11.7359 13.4274 11.7792C13.4274 11.8226 13.4625 11.8577 13.5058 11.8577Z" fill="#000080"/>
<path d="M13.1725 11.7683C13.2159 11.7683 13.251 11.7331 13.251 11.6898C13.251 11.6465 13.2159 11.6114 13.1725 11.6114C13.1292 11.6114 13.0941 11.6465 13.0941 11.6898C13.0941 11.7331 13.1292 11.7683 13.1725 11.7683Z" fill="#000080"/>
<path d="M12.9999 13.353C13.1948 13.353 13.3529 13.195 13.3529 13C13.3529 12.8051 13.1948 12.6471 12.9999 12.6471C12.805 12.6471 12.647 12.8051 12.647 13C12.647 13.195 12.805 13.353 12.9999 13.353Z" fill="#000080"/>
</g>
<defs>
<clipPath id="clip0_127_37">
<rect width="14.1176" height="14.1176" fill="white" transform="translate(5.94116 5.94116)"/>
</clipPath>
</defs>
</svg>
