<svg width="16" height="16" viewBox="0 0 16 16" fill="none" xmlns="http://www.w3.org/2000/svg">
<g clip-path="url(#clip0_577_5463)">
<path d="M12.8912 12.8037C10.425 15.27 6.21749 16.3837 2.82374 12.9887C-0.570007 9.59375 0.542493 5.3875 3.00874 2.92125C4.37499 1.55125 6.09374 0.738745 7.85249 0.624995C9.77124 0.509995 11.5825 1.24375 13.0762 2.7375C14.57 4.23125 15.295 6.03374 15.18 7.9525C15.065 9.71 14.25 11.4425 12.8912 12.8037Z" fill="url(#paint0_radial_577_5463)"/>
<path d="M9.25001 0.693359C10.48 0.982109 11.625 1.64211 12.6388 2.64836C14.1388 4.14836 14.8575 5.94586 14.7425 7.86336C14.625 9.62586 13.81 11.3546 12.4488 12.7159C10.8525 14.3121 8.52626 15.3409 6.16251 14.9471C8.67501 15.5571 11.195 14.5009 12.8913 12.8046C14.25 11.4434 15.065 9.71086 15.18 7.95211C15.295 6.03336 14.57 4.23086 13.0763 2.73711C11.95 1.61086 10.6425 0.917109 9.25001 0.693359Z" fill="#EB8F00"/>
<path d="M12.0887 4.94441C11.7425 4.84441 11.375 5.01566 11.2287 5.34566C10.5849 6.51643 9.77625 7.58863 8.8275 8.52941C7.8875 9.47816 6.815 10.2869 5.64375 10.9294C5.48484 11.0008 5.35689 11.1269 5.28323 11.2848C5.20957 11.4427 5.19512 11.6218 5.2425 11.7894C5.345 12.1332 5.68875 12.3019 6.0125 12.4232C7.82625 13.1019 9.8225 12.5969 11.3562 11.0719L11.3712 11.0582C12.895 9.52441 13.4 7.52816 12.7212 5.71316C12.6012 5.39066 12.4312 5.04566 12.0887 4.94441Z" fill="#422B0D"/>
<path d="M11.26 10.9475L11.2525 10.955V10.9625L11.26 10.9475ZM8.95125 8.625L8.9375 8.6375L8.925 8.65125L8.95125 8.625Z" fill="#422B0D"/>
<path d="M8.95125 8.625L8.9375 8.6375L8.925 8.65125L8.95125 8.625ZM11.26 10.9475L11.2525 10.955V10.9625L11.26 10.9475Z" fill="#422B0D"/>
<path d="M12.425 9.29688C12.3612 9.29688 12.3 9.30563 12.24 9.31063C11.5612 9.35438 10.9237 9.65062 10.4525 10.1406C9.94749 10.6256 9.62749 11.2731 9.54749 11.9694C9.53999 12.0306 9.53249 12.0944 9.52874 12.1544C9.52499 12.2144 9.53874 12.2644 9.54624 12.3144C10.222 12.0171 10.836 11.5956 11.3562 11.0719L11.3712 11.0581C11.8725 10.5594 12.28 9.97438 12.5737 9.33188C12.525 9.31688 12.475 9.30563 12.425 9.29688Z" fill="#ED7770"/>
<path d="M11.2287 5.34566C10.5849 6.51643 9.77625 7.58863 8.8275 8.52941C7.8875 9.47816 6.815 10.2869 5.64375 10.9294C5.48484 11.0008 5.35689 11.1269 5.28323 11.2848C5.20957 11.4427 5.19512 11.6218 5.2425 11.7894C5.25875 11.8407 5.28 11.8894 5.3075 11.9357C5.35875 11.9182 5.4075 11.8982 5.45625 11.8744C7.05278 11.3449 8.49964 10.4415 9.67625 9.23941C10.8298 8.111 11.7101 6.73385 12.25 5.21316C12.2712 5.16191 12.29 5.10941 12.3062 5.05566C12.2412 5.00566 12.1675 4.96691 12.0887 4.94441C11.7425 4.84441 11.375 5.01566 11.2287 5.34566Z" fill="white"/>
<path d="M8.92501 8.71673C9.65876 8.00673 10.1388 7.30923 10.7163 6.45923C10.86 6.24673 10.9963 6.02923 11.1275 5.80548L11.2225 5.63673C11.2475 5.59298 11.275 5.55048 11.3075 5.51173C11.365 5.44048 11.4388 5.38548 11.5238 5.35048C11.7213 5.27798 11.9375 5.27423 12.1375 5.34048C12.5438 5.53548 12.8975 6.23048 12.8525 6.10048C12.8525 6.10048 12.7788 5.80923 12.7763 5.80548C12.6763 5.55548 12.5738 5.27298 12.315 5.05548C12.1791 4.95177 12.0176 4.88679 11.8477 4.86742C11.6778 4.84806 11.5058 4.87503 11.35 4.94548C11.2017 5.01281 11.0727 5.11642 10.975 5.24673C10.9275 5.30673 10.885 5.37173 10.85 5.44048L10.7663 5.60548C10.65 5.82423 10.5263 6.04048 10.3913 6.25173C9.91126 7.05298 9.34501 7.79923 8.70251 8.47673L8.68251 8.49673C8.01927 9.13162 7.28724 9.6905 6.50001 10.163C6.28751 10.288 6.07251 10.413 5.85376 10.538L5.68376 10.6242C5.61501 10.6592 5.55001 10.7005 5.49001 10.7492C5.35901 10.8466 5.25492 10.9756 5.18751 11.1242C5.12175 11.2791 5.09866 11.4488 5.12064 11.6156C5.14262 11.7825 5.20887 11.9404 5.31251 12.073C5.64876 12.5117 6.41626 12.573 6.42001 12.573C6.54501 12.618 5.78751 12.2955 5.59251 11.8892C5.52375 11.6964 5.52375 11.4858 5.59251 11.293C5.62501 11.2055 5.67876 11.128 5.75001 11.068C5.78876 11.0355 5.83126 11.008 5.87501 10.9842L6.04376 10.8892C6.26626 10.7642 6.48376 10.6205 6.69751 10.4767C7.54626 9.89923 8.19751 9.47673 8.90376 8.73673" fill="#EB8F00"/>
<path d="M14.3912 3.91838C14.5412 4.87338 13.6637 5.77838 12.8675 5.88588C12.3075 5.96088 11.6825 5.83213 10.7425 5.59838C10.6037 5.57213 10.4625 5.53088 10.3075 5.49213C9.735 5.33338 9.1725 5.14213 8.62125 4.91963C8.56904 4.90045 8.52575 4.86267 8.49968 4.81353C8.47362 4.7644 8.46661 4.70737 8.48 4.65338C8.49625 4.60588 8.52875 4.56463 8.57 4.53713C8.99172 4.10482 9.46581 3.72689 9.98125 3.41213C11.2825 2.60713 11.7775 2.49838 12.3375 2.42338C13.11 2.29713 14.2287 2.87588 14.3912 3.91838Z" fill="url(#paint1_radial_577_5463)"/>
<path d="M13.19 3.02429C13.5537 3.19679 13.5562 3.69554 13.0012 3.77429C12.645 3.82179 10.8112 3.99429 11.025 3.65554C11.375 3.09929 12.6762 2.78054 13.19 3.02429Z" fill="#81D4FA"/>
<path d="M9.08124 3.88707L7.92749 4.92207L8.35499 3.27832C8.35874 3.25832 8.36249 3.23957 8.36374 3.21957C8.375 3.15176 8.37277 3.0824 8.35718 3.01546C8.34159 2.94852 8.31294 2.88531 8.27288 2.82946C8.23282 2.77361 8.18213 2.72621 8.12372 2.68998C8.06531 2.65375 8.00033 2.6294 7.93249 2.61832C7.86499 2.60707 7.79499 2.60957 7.72749 2.62457C7.57911 2.66536 7.44686 2.75081 7.34869 2.86932C7.25053 2.98784 7.19119 3.13368 7.17874 3.28707C7.10749 4.01332 6.93999 5.72457 6.87499 6.39082C6.85499 6.45707 6.89249 6.52707 6.95874 6.54707C7.00249 6.56082 7.04999 6.54832 7.08249 6.51582L9.66874 4.88082L9.71999 4.84457C10.0325 4.60457 10.1087 4.14707 9.85624 3.88207C9.66374 3.67957 9.33124 3.69582 9.08124 3.88707Z" fill="#422B0D"/>
<path d="M3.2375 13.0008C3.1925 12.462 3.19125 11.977 3.6775 10.5933C3.8675 10.0458 4.125 9.52451 4.44375 9.04076C4.46125 8.99576 4.49375 8.95826 4.535 8.93326C4.63375 8.88326 4.75375 8.91701 4.81375 9.00951C5.135 9.47951 5.42875 9.96701 5.69625 10.4695C5.76375 10.607 5.83125 10.7295 5.885 10.8545C6.2975 11.6908 6.54625 12.2495 6.59125 12.7883C6.655 13.5545 5.98875 14.562 5.065 14.6195C4.05875 14.677 3.285 13.7508 3.2375 13.0008Z" fill="url(#paint2_radial_577_5463)"/>
<path d="M4.12501 11.5206C4.39626 11.2494 4.61251 12.9994 4.64126 13.3431C4.68501 13.8781 4.21751 13.9781 3.98251 13.6744C3.64751 13.2494 3.67876 11.9606 4.12501 11.5206Z" fill="#81D4FA"/>
<path d="M3.77125 9.8453L4.60375 8.53655L3.0525 9.22905L3 9.2503C2.72625 9.3428 2.42875 9.19655 2.335 8.9228C2.3125 8.8578 2.30375 8.78905 2.30875 8.7203C2.32449 8.56714 2.38706 8.42255 2.48794 8.30624C2.58882 8.18992 2.7231 8.10754 2.8725 8.0703L5.875 7.25655C5.9375 7.22655 6.0125 7.2528 6.0425 7.3153C6.0625 7.35655 6.05875 7.4053 6.03125 7.44155L4.8475 10.2603C4.84 10.2803 4.83125 10.299 4.82125 10.3178C4.63625 10.6653 4.19625 10.8178 3.89375 10.6103C3.6625 10.4528 3.625 10.1253 3.77125 9.8453Z" fill="#422B0D"/>
</g>
<defs>
<radialGradient id="paint0_radial_577_5463" cx="0" cy="0" r="1" gradientUnits="userSpaceOnUse" gradientTransform="translate(7.73399 7.60043) rotate(-45) scale(7.12)">
<stop offset="0.5" stop-color="#FDE030"/>
<stop offset="0.92" stop-color="#F7C02B"/>
<stop offset="1" stop-color="#F4A223"/>
</radialGradient>
<radialGradient id="paint1_radial_577_5463" cx="0" cy="0" r="1" gradientUnits="userSpaceOnUse" gradientTransform="translate(9.68551 3.81385) rotate(-97.4809) scale(3.94407 6.10006)">
<stop offset="0.46" stop-color="#29B6F6"/>
<stop offset="1" stop-color="#1E88E5"/>
</radialGradient>
<radialGradient id="paint2_radial_577_5463" cx="0" cy="0" r="1" gradientUnits="userSpaceOnUse" gradientTransform="translate(4.93027 9.21234) rotate(175.426) scale(3.79458 5.80801)">
<stop offset="0.46" stop-color="#29B6F6"/>
<stop offset="1" stop-color="#1E88E5"/>
</radialGradient>
<clipPath id="clip0_577_5463">
<rect width="16" height="16" fill="white"/>
</clipPath>
</defs>
</svg>
