<svg width="26" height="26" viewBox="0 0 26 26" fill="none" xmlns="http://www.w3.org/2000/svg">
<circle cx="13" cy="13" r="12" fill="#FFD44F" stroke="#5D3014"/>
<path d="M9.00004 9.6665H12.3334C12.5102 9.6665 12.6798 9.73674 12.8048 9.86177C12.9298 9.98679 13 10.1564 13 10.3332C13 10.51 12.9298 10.6796 12.8048 10.8046C12.6798 10.9296 12.5102 10.9998 12.3334 10.9998H9.00004C8.82323 10.9998 8.65366 10.9296 8.52864 10.8046C8.40361 10.6796 8.33337 10.51 8.33337 10.3332C8.33337 10.1564 8.40361 9.98679 8.52864 9.86177C8.65366 9.73674 8.82323 9.6665 9.00004 9.6665ZM13.6667 14.9998H17C17.1769 14.9998 17.3464 15.0701 17.4714 15.1951C17.5965 15.3201 17.6667 15.4897 17.6667 15.6665C17.6667 15.8433 17.5965 16.0129 17.4714 16.1379C17.3464 16.2629 17.1769 16.3332 17 16.3332H13.6667C13.4899 16.3332 13.3203 16.2629 13.1953 16.1379C13.0703 16.0129 13 15.8433 13 15.6665C13 15.4897 13.0703 15.3201 13.1953 15.1951C13.3203 15.0701 13.4899 14.9998 13.6667 14.9998ZM9.00004 12.3332H17C17.1769 12.3332 17.3464 12.4034 17.4714 12.5284C17.5965 12.6535 17.6667 12.823 17.6667 12.9998C17.6667 13.1766 17.5965 13.3462 17.4714 13.4712C17.3464 13.5963 17.1769 13.6665 17 13.6665H9.00004C8.82323 13.6665 8.65366 13.5963 8.52864 13.4712C8.40361 13.3462 8.33337 13.1766 8.33337 12.9998C8.33337 12.823 8.40361 12.6535 8.52864 12.5284C8.65366 12.4034 8.82323 12.3332 9.00004 12.3332Z" fill="#5D3014"/>
</svg>
