<svg width="24" height="24" viewBox="0 0 24 24" fill="none" xmlns="http://www.w3.org/2000/svg">
<circle cx="12" cy="12" r="12" fill="#FFD44F"/>
<g clip-path="url(#clip0_297_55)">
<path d="M14.6215 7.50306C15.6545 7.50306 16.4925 11.8601 16.4925 17.2421H18C18 11.4481 16.479 6.75806 14.617 6.75806C13.5535 6.75806 12.6135 8.16306 11.993 10.3716C11.3725 8.16356 10.4325 6.75806 9.3775 6.75806C7.5155 6.75806 6 11.4441 6 17.2381H7.507C7.507 11.8566 8.336 7.50306 9.369 7.50306C10.402 7.50306 11.2395 11.5281 11.2395 16.4931H12.738C12.738 11.5281 13.58 7.50306 14.613 7.50306H14.6215Z" fill="#5D3014"/>
</g>
<defs>
<clipPath id="clip0_297_55">
<rect width="12" height="12" fill="white" transform="translate(6 6)"/>
</clipPath>
</defs>
</svg>
