<svg width="26" height="26" viewBox="0 0 26 26" fill="none" xmlns="http://www.w3.org/2000/svg">
<circle cx="13" cy="13" r="12" fill="white" stroke="#FFD44F"/>
<g clip-path="url(#clip0_189_12131)">
<path d="M6.77778 7.22217C6.30628 7.22217 5.8541 7.40947 5.5207 7.74287C5.1873 8.07626 5 8.52845 5 8.99995V16.9999C5 17.4714 5.1873 17.9236 5.5207 18.257C5.8541 18.5904 6.30628 18.7777 6.77778 18.7777H10.3333V7.22217H6.77778Z" fill="#009A49"/>
<path d="M10.3334 7.22217H15.6667V18.7777H10.3334V7.22217Z" fill="#EEEEEE"/>
<path d="M19.2222 7.22217H15.6666V18.7777H19.2222C19.6937 18.7777 20.1459 18.5904 20.4793 18.257C20.8127 17.9236 21 17.4714 21 16.9999V8.99995C21 8.52845 20.8127 8.07626 20.4793 7.74287C20.1459 7.40947 19.6937 7.22217 19.2222 7.22217Z" fill="#009A49"/>
</g>
<defs>
<clipPath id="clip0_189_12131">
<rect width="16" height="16" fill="white" transform="translate(5 5)"/>
</clipPath>
</defs>
</svg>
