<svg width="24" height="24" viewBox="0 0 24 24" fill="none" xmlns="http://www.w3.org/2000/svg">
<circle cx="12" cy="12" r="12" fill="#FFD44F"/>
<g clip-path="url(#clip0_245_52)">
<path d="M9.40049 17.9995H7.60049C7.44136 17.9995 7.28875 17.9363 7.17622 17.8238C7.0637 17.7112 7.00049 17.5586 7.00049 17.3995V6.59949C7.00049 6.26799 7.26899 5.99949 7.60049 5.99899H9.40049C9.55962 5.99899 9.71223 6.06221 9.82475 6.17473C9.93727 6.28725 10.0005 6.43986 10.0005 6.59899V17.399C10.0005 17.7305 9.73199 17.999 9.40049 17.9995ZM15.4 17.9995H13.6C13.4409 17.9995 13.2882 17.9363 13.1757 17.8238C13.0632 17.7112 13 17.5586 13 17.3995V6.59899C13 6.43986 13.0632 6.28725 13.1757 6.17473C13.2882 6.06221 13.4409 5.99899 13.6 5.99899H15.4C15.5591 5.99899 15.7117 6.06221 15.8243 6.17473C15.9368 6.28725 16 6.43986 16 6.59899V17.399C16 17.5581 15.9368 17.7107 15.8243 17.8233C15.7117 17.9358 15.5591 17.999 15.4 17.999V17.9995Z" fill="#5D3014"/>
</g>
<defs>
<clipPath id="clip0_245_52">
<rect width="9" height="12" fill="white" transform="translate(7 6)"/>
</clipPath>
</defs>
</svg>
