<svg width="16" height="16" viewBox="0 0 16 16" fill="none" xmlns="http://www.w3.org/2000/svg">
<g clip-path="url(#clip0_577_5480)">
<path d="M14.105 11.5356C14.6456 11.1247 15 10.4816 15 9.75C15 8.50719 13.9925 7.5 12.75 7.5H12.3103C12.7297 7.13344 13 6.60063 13 6C13 4.89531 12.1047 4 11 4H10.8162C10.9278 3.68594 11 3.3525 11 3C11 1.34312 9.65687 0 8 0C7.83844 0 7.68281 0.023125 7.52781 0.0475C7.82219 0.4575 8 0.956875 8 1.5C8 2.88063 6.88062 4 5.5 4H5C3.89531 4 3 4.89531 3 6C3 6.60063 3.27031 7.13344 3.68969 7.5H3.25C2.0075 7.5 1 8.50719 1 9.75C1 10.4816 1.35438 11.1247 1.895 11.5356C0.822187 11.7069 0 12.6287 0 13.75C0 14.9925 1.0075 16 2.25 16H13.75C14.9925 16 16 14.9925 16 13.75C16 12.6287 15.1778 11.7069 14.105 11.5356Z" fill="#EFB03D"/>
</g>
<defs>
<clipPath id="clip0_577_5480">
<rect width="16" height="16" fill="white"/>
</clipPath>
</defs>
</svg>
