<svg width="24" height="24" viewBox="0 0 24 24" fill="none" xmlns="http://www.w3.org/2000/svg">
<circle cx="12" cy="12" r="12" fill="#FFD44F"/>
<path d="M14.5492 14.0359L16.6471 11.9345C16.9485 11.6331 17.1826 11.2835 17.3492 10.8859C17.5162 10.4893 17.5998 10.0728 17.5998 9.63643C17.5998 8.73483 17.2852 7.96996 16.6562 7.34183C16.0271 6.71369 15.2611 6.39939 14.3581 6.39893C13.9255 6.39893 13.5106 6.48246 13.1135 6.64953C12.7159 6.81659 12.3661 7.05086 12.0642 7.35233L9.96348 9.44953L14.5492 14.0359ZM9.64218 17.5989C10.0743 17.5989 10.4892 17.5154 10.8868 17.3483C11.2844 17.1817 11.6339 16.9477 11.9354 16.6462L14.0368 14.5483L9.45038 9.96263L7.35318 12.0633C7.05171 12.3648 6.81745 12.7143 6.65038 13.1119C6.48331 13.5086 6.39978 13.9251 6.39978 14.3614C6.39978 15.263 6.71431 16.0279 7.34338 16.656C7.97245 17.2842 8.73871 17.5985 9.64218 17.5989Z" fill="#5D3014"/>
</svg>
