<svg width="24" height="24" viewBox="0 0 24 24" fill="none" xmlns="http://www.w3.org/2000/svg">
<circle cx="12" cy="12" r="12" fill="#FFD44F"></circle>
<path d="M19.3334 10.666C19.3334 10.3124 19.1929 9.97326 18.9428 9.72321C18.6928 9.47316 18.3536 9.33268 18 9.33268H13.7867L14.4267 6.28602C14.44 6.21935 14.4467 6.14602 14.4467 6.07268C14.4467 5.79935 14.3334 5.54602 14.1534 5.36602L13.4467 4.66602L9.06002 9.05268C8.81335 9.29935 8.66669 9.63268 8.66669 9.99935V16.666C8.66669 17.0196 8.80716 17.3588 9.05721 17.6088C9.30726 17.8589 9.6464 17.9993 10 17.9993H16C16.5534 17.9993 17.0267 17.666 17.2267 17.186L19.24 12.486C19.3 12.3327 19.3334 12.1727 19.3334 11.9993V10.666ZM4.66669 17.9993H7.33335V9.99935H4.66669V17.9993Z" fill="#5D3014" data-index="0"></path>
</svg>