<svg width="168" height="64" viewBox="0 0 168 64" fill="none" xmlns="http://www.w3.org/2000/svg">
<path d="M45.1953 39.1289C44.8984 39.1289 44.6211 39.0039 44.3633 38.7539C41.7773 36.1992 38.9023 34.4805 35.7383 33.5977L35.832 35.8945L35.8906 38.2031C35.8906 38.5469 35.7773 38.832 35.5508 39.0586C35.332 39.293 35.0547 39.4102 34.7188 39.4102C34.3828 39.4102 34.1016 39.293 33.875 39.0586C33.6562 38.832 33.5469 38.5469 33.5469 38.2031C33.5469 37.5859 33.5156 36.668 33.4531 35.4492C33.3984 34.2227 33.3711 33.3008 33.3711 32.6836C33.3711 31.9648 33.4492 30.8945 33.6055 29.4727C33.7617 28.0508 33.8398 26.9844 33.8398 26.2734C33.8398 25.875 33.8008 25.2852 33.7227 24.5039C33.6523 23.7227 33.6172 23.1328 33.6172 22.7344C33.6172 22.2891 33.7422 21.8984 33.9922 21.5625C34.2891 21.1484 34.6992 20.9609 35.2227 21L38.0469 21.2227C39.1172 21.3555 40.0195 21.6172 40.7539 22.0078C43.918 23.6875 45.5 25.7383 45.5 28.1602C45.5 29.3477 44.9609 30.3984 43.8828 31.3125C43.0156 32.0469 41.9336 32.6055 40.6367 32.9883C43.0664 34.293 44.8828 35.668 46.0859 37.1133C46.2891 37.3633 46.3906 37.6289 46.3906 37.9102C46.3906 38.2383 46.2695 38.5234 46.0273 38.7656C45.793 39.0078 45.5156 39.1289 45.1953 39.1289ZM37.7305 23.6367L35.9961 23.4961L36.1133 24.9141C36.168 25.4922 36.1953 25.9648 36.1953 26.332C36.1953 26.957 36.1445 27.7344 36.043 28.6641L35.7969 30.9961C35.9062 30.9961 36.0742 31 36.3008 31.0078C36.5352 31.0156 36.7109 31.0195 36.8281 31.0195C38.8203 31.0195 40.3125 30.7539 41.3047 30.2227C41.7422 29.9805 42.1484 29.6641 42.5234 29.2734C42.9375 28.8359 43.1445 28.4648 43.1445 28.1602C43.1445 27.0742 42.5273 26.0625 41.293 25.125C40.1602 24.2656 38.9727 23.7695 37.7305 23.6367ZM53.1172 39.6914C51.8047 39.6914 50.6758 39.207 49.7305 38.2383C48.6758 37.1602 48.1211 35.7109 48.0664 33.8906C48.0195 32.125 48.4648 30.5703 49.4023 29.2266C50.4961 27.6406 52.0195 26.8477 53.9727 26.8477C55.5352 26.8477 56.7188 27.5625 57.5234 28.9922C58.1641 30.1484 58.4727 31.5391 58.4492 33.1641C58.4258 34.8984 57.9727 36.3789 57.0898 37.6055C56.0898 38.9961 54.7656 39.6914 53.1172 39.6914ZM53.8203 29.2266C52.6719 29.2188 51.7773 29.7656 51.1367 30.8672C50.6289 31.75 50.375 32.7578 50.375 33.8906C50.375 35.0234 50.6836 35.9062 51.3008 36.5391C51.8164 37.0625 52.4219 37.3242 53.1172 37.3242C53.9297 37.3242 54.6289 37.0273 55.2148 36.4336C55.8789 35.7773 56.2305 34.8906 56.2695 33.7734C56.3789 30.75 55.5625 29.2344 53.8203 29.2266ZM70.5078 39.7734C70.3594 39.7734 70.0898 39.6016 69.6992 39.2578C69.3477 38.9375 69.0859 38.6523 68.9141 38.4023C68.1641 38.8086 67.5039 39.1133 66.9336 39.3164C66.3633 39.5273 65.8867 39.6328 65.5039 39.6328C63.6758 39.6328 62.3438 39.1172 61.5078 38.0859C60.7188 37.1172 60.3242 35.6328 60.3242 33.6328C60.3242 31.7422 60.9727 30.125 62.2695 28.7812C63.5742 27.4375 65.1289 26.7656 66.9336 26.7656C67.6133 26.7656 68.375 26.9414 69.2188 27.293C70.2812 27.7305 70.8125 28.2578 70.8125 28.875C70.8125 29.0859 70.7344 29.2734 70.5781 29.4375C70.5 29.7344 70.4375 30.2227 70.3906 30.9023C70.3516 31.582 70.3281 32.4531 70.3203 33.5156C70.3125 34.4844 70.3789 35.25 70.5195 35.8125C70.5977 36.1562 70.8438 36.8438 71.2578 37.875C71.3125 38.0156 71.4023 38.2227 71.5273 38.4961L71.5977 38.6953C71.5977 39.0078 71.4883 39.2656 71.2695 39.4688C71.0508 39.6719 70.7969 39.7734 70.5078 39.7734ZM68.0703 31.6289C68.0703 31.293 68.0898 30.9297 68.1289 30.5391C68.1758 30.1406 68.2422 29.7188 68.3281 29.2734C68.0391 29.125 67.7891 29.0156 67.5781 28.9453C67.375 28.875 67.2109 28.8398 67.0859 28.8398C65.875 28.8398 64.8281 29.3359 63.9453 30.3281C63.0703 31.3125 62.6328 32.4492 62.6328 33.7383C62.6328 35.0195 62.8594 35.9805 63.3125 36.6211C63.7656 37.2617 64.4453 37.582 65.3516 37.582C66.1016 37.582 66.7383 37.4453 67.2617 37.1719C67.543 37.0234 67.9375 36.7266 68.4453 36.2812C68.1953 34.2109 68.0703 32.6602 68.0703 31.6289ZM84.4297 28.6523C84.3359 29.8008 84.2891 30.9492 84.2891 32.0977C84.2891 34.6992 84.4102 36.6641 84.6523 37.9922C84.668 38.1016 84.6758 38.1914 84.6758 38.2617C84.6758 38.5742 84.5664 38.832 84.3477 39.0352C84.1289 39.2383 83.875 39.3398 83.5859 39.3398C83.1016 39.3398 82.7461 38.9883 82.5195 38.2852C81.957 38.6992 81.3711 39.0117 80.7617 39.2227C80.1602 39.4336 79.5312 39.5391 78.875 39.5391C77.2578 39.5391 75.918 39 74.8555 37.9219C73.7617 36.8203 73.2148 35.4062 73.2148 33.6797C73.2148 31.5938 73.7656 29.9219 74.8672 28.6641C75.9766 27.4062 77.4141 26.7773 79.1797 26.7773C80.0859 26.7773 80.7852 26.918 81.2773 27.1992L82.3789 28.0078C82.4883 24.7188 82.6172 22.5039 82.7656 21.3633C82.8672 20.668 83.2227 20.3203 83.832 20.3203C84.543 20.3203 84.8984 20.6992 84.8984 21.457C84.8984 22.543 84.7422 24.9414 84.4297 28.6523ZM79.2266 28.957C77.9141 28.957 76.9297 29.3477 76.2734 30.1289C75.6172 30.9023 75.2891 32.0703 75.2891 33.6328C75.2891 34.6406 75.6445 35.5078 76.3555 36.2344C77.0742 36.9609 77.9141 37.3242 78.875 37.3242C79.5312 37.3242 80.0859 37.2031 80.5391 36.9609C80.8047 36.8203 81.2383 36.4961 81.8398 35.9883C81.957 35.8867 82.0703 35.7656 82.1797 35.625L82.1445 33.5977L82.1562 32.2383L82.1797 30.8555C81.8828 30.2227 81.4883 29.75 80.9961 29.4375C80.5039 29.1172 79.9141 28.957 79.2266 28.957ZM102.629 39.9727C101.988 39.9727 101.613 39.6328 101.504 38.9531C101.363 38.0938 101.223 36.8828 101.082 35.3203L100.684 31.6875C100.605 31.1484 100.473 30.6211 100.285 30.1055C100.02 29.4023 99.7305 29.0508 99.418 29.0508C99.1289 29.0508 98.5898 29.2969 97.8008 29.7891C97.0508 30.2422 96.5586 30.6055 96.3242 30.8789C96.3164 31.6133 96.3359 32.3477 96.3828 33.082L96.7344 36.2109C96.8828 37.4453 96.957 38.4648 96.957 39.2695C96.957 39.6133 96.8477 39.8945 96.6289 40.1133C96.418 40.3398 96.1445 40.4531 95.8086 40.4531C95.4727 40.4531 95.1953 40.3398 94.9766 40.1133C94.7656 39.8945 94.6602 39.6133 94.6602 39.2695C94.6602 38.3242 94.5625 36.9297 94.3672 35.0859C94.1797 33.2344 94.0859 31.8359 94.0859 30.8906C94.0859 30.0625 93.9688 29.418 93.7344 28.957C93.1875 29.207 92.6328 29.6133 92.0703 30.1758L90.6875 31.7227C90.5625 31.9102 90.3633 32.1562 90.0898 32.4609C90.0898 32.9297 90.0469 33.6211 89.9609 34.5352C89.875 35.4492 89.832 36.125 89.832 36.5625C89.832 36.7969 89.8672 37.125 89.9375 37.5469C90.0156 37.9688 90.0547 38.2734 90.0547 38.4609C90.0547 38.7812 89.9336 39.0508 89.6914 39.2695C89.457 39.4883 89.1797 39.5977 88.8594 39.5977C87.9766 39.5977 87.5352 38.5938 87.5352 36.5859C87.5352 36.1172 87.5781 35.418 87.6641 34.4883C87.75 33.5586 87.793 32.8594 87.793 32.3906C87.793 31.9766 87.7539 31.3555 87.6758 30.5273C87.6055 29.6992 87.5703 29.0742 87.5703 28.6523C87.5703 26.8789 87.9688 25.9922 88.7656 25.9922C89.0703 25.9922 89.3477 26.125 89.5977 26.3906C89.8555 26.6562 89.9844 26.9453 89.9844 27.2578C89.9844 27.4062 89.9648 27.6367 89.9258 27.9492C89.8867 28.2617 89.8672 28.5 89.8672 28.6641L89.8906 29.8945C90.2969 29.0586 90.8945 28.3047 91.6836 27.6328C92.4727 26.9531 93.1445 26.6133 93.6992 26.6133C94.9258 26.6133 95.7695 27.2227 96.2305 28.4414C96.6602 27.8711 97.1719 27.4453 97.7656 27.1641C98.3594 26.875 99.0391 26.7305 99.8047 26.7305C101.109 26.7305 102 27.4336 102.477 28.8398C102.57 29.1211 102.73 30.2188 102.957 32.1328C103.176 33.4766 103.457 35.7148 103.801 38.8477C103.824 39.1602 103.719 39.4258 103.484 39.6445C103.25 39.8633 102.965 39.9727 102.629 39.9727ZM115.555 39.7734C115.406 39.7734 115.137 39.6016 114.746 39.2578C114.395 38.9375 114.133 38.6523 113.961 38.4023C113.211 38.8086 112.551 39.1133 111.98 39.3164C111.41 39.5273 110.934 39.6328 110.551 39.6328C108.723 39.6328 107.391 39.1172 106.555 38.0859C105.766 37.1172 105.371 35.6328 105.371 33.6328C105.371 31.7422 106.02 30.125 107.316 28.7812C108.621 27.4375 110.176 26.7656 111.98 26.7656C112.66 26.7656 113.422 26.9414 114.266 27.293C115.328 27.7305 115.859 28.2578 115.859 28.875C115.859 29.0859 115.781 29.2734 115.625 29.4375C115.547 29.7344 115.484 30.2227 115.438 30.9023C115.398 31.582 115.375 32.4531 115.367 33.5156C115.359 34.4844 115.426 35.25 115.566 35.8125C115.645 36.1562 115.891 36.8438 116.305 37.875C116.359 38.0156 116.449 38.2227 116.574 38.4961L116.645 38.6953C116.645 39.0078 116.535 39.2656 116.316 39.4688C116.098 39.6719 115.844 39.7734 115.555 39.7734ZM113.117 31.6289C113.117 31.293 113.137 30.9297 113.176 30.5391C113.223 30.1406 113.289 29.7188 113.375 29.2734C113.086 29.125 112.836 29.0156 112.625 28.9453C112.422 28.875 112.258 28.8398 112.133 28.8398C110.922 28.8398 109.875 29.3359 108.992 30.3281C108.117 31.3125 107.68 32.4492 107.68 33.7383C107.68 35.0195 107.906 35.9805 108.359 36.6211C108.812 37.2617 109.492 37.582 110.398 37.582C111.148 37.582 111.785 37.4453 112.309 37.1719C112.59 37.0234 112.984 36.7266 113.492 36.2812C113.242 34.2109 113.117 32.6602 113.117 31.6289ZM123.664 39.4102C122.883 39.4102 122.023 39.2852 121.086 39.0352L121.062 44.6367C121.062 44.9805 120.953 45.2617 120.734 45.4805C120.523 45.6992 120.25 45.8086 119.914 45.8086C119.578 45.8086 119.301 45.6992 119.082 45.4805C118.871 45.2617 118.766 44.9805 118.766 44.6367L118.801 39.9492V35.2734C118.777 33.5625 118.719 32.0039 118.625 30.5977L118.449 28.2188C118.449 27.6641 118.551 27.1953 118.754 26.8125C118.988 26.3516 119.328 26.1211 119.773 26.1211C120.078 26.1211 120.332 26.2305 120.535 26.4492C120.746 26.6602 120.852 26.9219 120.852 27.2344C120.852 27.3047 120.84 27.4336 120.816 27.6211C120.777 27.8633 120.75 28.0859 120.734 28.2891C121.406 27.8281 122.055 27.4844 122.68 27.2578C123.305 27.0234 123.902 26.9062 124.473 26.9062C126.074 26.9062 127.246 27.6172 127.988 29.0391C128.574 30.1641 128.867 31.6523 128.867 33.5039C128.867 35.1914 128.414 36.582 127.508 37.6758C126.547 38.832 125.266 39.4102 123.664 39.4102ZM124.473 29.25C123.754 29.25 123.105 29.4102 122.527 29.7305C122.113 29.957 121.59 30.3711 120.957 30.9727C121.059 32.7461 121.109 34.6094 121.109 36.5625C121.961 36.8906 122.812 37.0547 123.664 37.0547C124.641 37.0547 125.387 36.6914 125.902 35.9648C126.348 35.332 126.57 34.5117 126.57 33.5039C126.57 32.082 126.395 31.0195 126.043 30.3164C125.699 29.6055 125.176 29.25 124.473 29.25ZM137 39.5391C135.234 39.5391 133.805 39.0977 132.711 38.2148C131.516 37.2383 130.918 35.8711 130.918 34.1133C130.918 32.082 131.41 30.3789 132.395 29.0039C133.465 27.5039 134.895 26.7539 136.684 26.7539C137.98 26.7539 139.039 26.9727 139.859 27.4102C140.867 27.9492 141.371 28.7773 141.371 29.8945C141.371 30.6758 140.93 31.3867 140.047 32.0273C139.656 32.3086 138.828 32.7461 137.562 33.3398L133.086 35.4609C133.523 36.1094 134.066 36.5977 134.715 36.9258C135.371 37.2539 136.133 37.418 137 37.418C137.539 37.418 138.172 37.3164 138.898 37.1133C139.82 36.8555 140.414 36.5195 140.68 36.1055C140.945 35.6836 141.23 35.4727 141.535 35.4727C141.809 35.4727 142.051 35.5781 142.262 35.7891C142.48 35.9922 142.59 36.2305 142.59 36.5039C142.59 37.3711 141.891 38.1172 140.492 38.7422C139.297 39.2734 138.133 39.5391 137 39.5391ZM136.684 28.8633C135.73 28.8633 134.938 29.2344 134.305 29.9766C133.672 30.7109 133.199 31.8203 132.887 33.3047L136.484 31.5938C137.898 30.9062 138.906 30.3086 139.508 29.8008C138.836 29.1758 137.895 28.8633 136.684 28.8633Z" fill="#121212"/>
<g clip-path="url(#clip0_255_66)">
<path fill-rule="evenodd" clip-rule="evenodd" d="M42.7688 2.60486C42.036 2.55732 41.3525 2.65845 40.7068 2.88918C41.388 2.78043 42.1281 2.87191 42.7688 2.60486ZM143.341 4.71036H146.885V4.65946H143.341V4.71036ZM99.0465 4.96823C99.0465 4.94401 99.0473 4.91934 99.0473 4.89512H94.1257C94.125 4.91934 94.1243 4.94401 94.1235 4.96823H99.0465ZM121.274 6.13535C121.274 6.1454 121.275 6.1555 121.275 6.1656H126.602L126.601 6.13535H121.274ZM38.4762 50.6605C37.79 50.57 37.1427 50.512 36.5463 50.227C36.113 50.0195 35.5349 50.1395 35.0246 50.5795C36.3152 50.2715 37.2971 51.1385 38.4762 50.6605ZM138.192 5.58485C141.163 5.32365 144.137 5.14245 147.136 5.2068C145.295 4.97921 139.946 5.19695 138.192 5.58485ZM142.208 2.67773C145.06 2.56562 147.84 2.91743 150.628 3.20534C147.888 2.51068 145.068 2.40462 142.208 2.67773ZM131.576 6.2396C126.728 6.6513 121.874 6.7578 117.009 6.3923C121.876 6.85105 126.735 6.94325 131.576 6.2396ZM8.97667 12.5339C10.5717 11.5924 12.2358 10.7146 13.9842 9.90845C15.7145 9.1106 17.4679 8.3366 19.2452 7.59015C15.4928 8.93325 11.8587 10.3896 8.97667 12.5339ZM125.605 4.01772C125.489 4.01256 125.374 4.00427 125.258 4.00337C121.208 3.97288 117.178 3.78878 113.18 3.33607C108.859 2.8468 104.517 2.48803 100.13 2.39274C95.2988 2.28735 90.4687 2.13532 85.6365 2.05079C82.7715 2.00101 79.9043 2.0416 77.3078 2.0416C82.3118 2.28219 87.6045 2.24744 92.8853 2.4248C97.5623 2.58199 102.252 2.58333 106.903 3.00488C110.757 3.35423 114.607 3.72622 118.462 4.06481C120.837 4.27289 123.222 4.25473 125.605 4.01772ZM164.285 22.5724C164.285 20.453 164.409 18.3291 164.246 16.2153C164.112 14.4977 163.847 12.7447 162.269 11.2718C158.588 7.83745 153.47 6.0084 147.306 5.4907C143.623 5.18125 139.971 5.6351 136.339 6.0416C132.679 6.4515 129.011 6.8365 125.299 6.9403C121.333 7.0511 117.393 6.78875 113.504 6.29275C104.944 5.2005 96.2513 5.2014 87.6045 4.9041C80.7465 4.66843 73.8827 4.50811 67.0487 4.05494C61.6883 3.69932 52.8882 4.00068 47.362 4.67897C46.571 4.77606 45.778 4.86688 44.9877 4.96128C39.8275 5.577 34.7708 6.4625 29.7422 7.4417C23.5328 8.65095 17.8939 10.5948 12.7364 13.1904C11.485 13.8203 10.3973 14.502 10.0413 15.6C9.85508 16.1752 9.38355 16.714 8.72482 17.1162C7.59157 17.8084 6.77818 18.687 5.7099 19.4014C3.63765 20.7874 3.16646 22.5278 3.16646 24.3353C3.16613 27.1774 4.61417 29.826 6.26615 32.3759C7.89503 34.8904 10.5148 37.0087 13.4233 38.9343C17.1931 41.4298 21.1872 43.7345 25.9813 45.3386C29.5234 46.5239 33.0347 47.7495 36.8286 48.5545C38.2652 48.8592 39.7029 49.157 41.1486 49.4422C48.5002 50.891 55.9403 52.1375 63.2016 53.7965C70.0704 55.3655 76.9793 56.855 84.0278 58.0325C87.8453 58.67 91.7085 59.1365 95.598 59.5265C100.777 60.0455 105.968 60.4505 111.214 60.4005C118.373 60.3325 125.515 60.1405 132.468 58.8215C136.17 58.119 139.744 57.2165 143.005 55.819C147.183 54.029 149.896 51.3725 152.366 48.6031C155.343 45.2643 158.071 41.8308 160.54 38.3086C161.845 36.4459 162.997 34.5502 163.562 32.5066C164.473 29.2147 164.437 25.8961 164.285 22.5724ZM40.4634 53C39.4945 52.8405 39.4789 52.2405 39.2314 51.764C39.1359 51.5805 39.2977 51.3795 39.5485 51.231C39.7364 51.12 39.9674 51.029 39.8901 50.788C39.7169 50.247 40.1543 50.2945 40.7216 50.412C41.7534 50.626 42.8019 50.8035 43.8826 50.91C43.7245 50.863 43.5731 50.796 43.4077 50.7725C41.9596 50.57 40.6828 50.0715 39.3174 49.7274C37.6447 49.3059 35.8748 49.044 34.2426 48.5666C31.0495 47.632 27.6803 46.966 24.6757 45.7317C24.0853 45.4893 23.4778 45.1614 22.5619 45.0728C23.174 45.5325 23.8679 45.7439 24.5015 45.9792C27.2231 46.9904 30.0482 47.8578 32.9038 48.6901C34.8002 49.2429 36.7438 49.6809 38.6986 50.113C38.8998 50.157 39.1038 50.1985 39.3061 50.241C39.7598 50.337 39.6369 50.576 39.6245 50.7955C39.6054 51.1425 39.2759 50.8735 39.1057 50.908C38.9125 50.9475 38.6881 50.9175 38.4631 50.9175C38.4859 51.1295 38.7896 51.0665 38.9266 51.1615C39.2029 51.3525 39.0408 51.522 38.9467 51.7085C38.8081 51.984 38.5324 51.8655 38.2762 51.83C37.7113 51.752 37.3939 51.213 36.5834 51.4965C36.3541 51.5765 35.8132 51.234 35.5584 50.9895C35.4037 50.8415 35.2791 50.679 35.0175 50.7845C34.1438 51.136 33.3947 50.66 32.819 50.4715C31.9818 50.197 31.0816 50.235 30.2887 49.977L30.3168 49.9868C29.8373 49.5494 29.0898 49.4453 28.3946 49.2776C28.13 49.4762 28.6661 49.5341 28.5094 49.7187C28.2154 49.8032 27.9605 49.6679 27.6943 49.6018C27.3299 49.5112 27.0771 49.372 26.5678 49.5253C26.0855 49.6704 25.486 49.3119 25.1086 49.0471C24.3799 48.5361 23.7319 48.0766 22.4965 48.1452C22.0036 48.1726 21.446 47.7892 20.9387 47.5712C18.0467 46.3292 15.3646 44.8953 12.9139 43.2952C10.4686 41.6985 8.13315 40.0374 6.27518 38.07C5.21528 36.948 4.03951 35.8812 3.29506 34.6446C1.35776 31.4249 -0.136151 28.138 0.00985809 24.6096C0.102956 22.3675 0.80487 20.224 2.25022 18.1961C2.3671 18.032 2.5034 17.8632 2.68826 17.7329C4.5127 16.4483 5.71225 14.9026 6.92218 13.3476C8.45228 11.3811 11.1568 10.1872 13.7417 8.92745C19.2937 6.2219 25.6418 4.70722 32.1446 3.43832C39.0469 2.09137 46.0794 1.18796 53.2362 0.696445C58.4975 0.335213 63.7304 0.445758 68.9821 0.80385C74.4946 1.17966 80.043 1.1097 85.5757 1.23908C92.8402 1.4086 100.127 1.33752 107.358 1.95639C110.824 2.25327 114.278 2.60755 117.736 2.94075C122.485 3.39818 127.195 3.11857 131.895 2.61966C136.1 2.17344 140.311 1.60839 144.58 1.73126C153.556 1.9898 160.496 4.5552 165.268 9.821C167.311 12.0767 167.677 14.4381 167.812 16.8918C167.974 19.864 168.051 22.8401 167.962 25.8161C167.808 31.0144 165.896 35.8976 162.413 40.5515C159.509 44.4311 156.471 48.254 152.999 51.916C150.098 54.9755 146.713 57.7465 141.964 59.622C138.776 60.881 135.335 61.7235 131.773 62.3925C129.585 62.804 127.367 63.088 125.138 63.319C123.049 63.5345 120.925 63.6045 118.815 63.7325C117.579 63.807 116.349 63.9235 115.098 63.854C114.203 63.804 113.272 64.0085 112.444 63.9695C111.543 63.9265 110.629 63.943 109.725 63.905C108.912 63.8705 108.057 63.829 107.296 63.841C106.344 63.855 105.405 63.6225 104.391 63.803C103.589 63.946 102.644 63.556 101.726 63.6415C101.052 63.704 100.411 63.42 99.7912 63.497C99.1747 63.574 98.721 63.5875 98.3235 63.232C98.2493 63.166 97.998 63.1095 97.9087 63.143C96.9915 63.494 96.2115 62.957 95.3528 62.9815C94.3995 63.0085 93.5003 62.792 92.5703 62.7115C90.0495 62.492 87.612 61.9685 85.1055 61.7245C83.2972 61.5485 81.5295 61.2295 79.7805 60.948C78.3255 60.7135 76.791 60.4865 75.3908 60.054C74.8539 59.9665 74.3171 59.879 73.7803 59.7915C72.5228 59.5235 71.2649 59.2555 70.0071 58.9875C69.472 58.8985 68.9767 58.6845 68.3899 58.7575C68.2168 58.563 67.9151 58.5275 67.6254 58.464C64.3382 57.7445 61.0541 57.02 57.7688 56.297C53.565 55.4915 49.369 54.6685 45.1541 53.8905C43.5869 53.601 42.0822 53.1645 40.4634 53Z" fill="#5D3014"/>
</g>
<defs>
<clipPath id="clip0_255_66">
<rect width="168" height="64" fill="white"/>
</clipPath>
</defs>
</svg>
