<svg width="24" height="24" viewBox="0 0 24 24" fill="none" xmlns="http://www.w3.org/2000/svg">
<g clip-path="url(#clip0_986_565)">
<path d="M9.74996 0.595703C8.23994 0.891325 6.80413 1.48545 5.52671 2.34322L7.77821 4.59619C8.39171 4.24519 9.05321 3.97068 9.74921 3.78018V0.675217L9.74996 0.595703ZM14.25 0.595703V3.78018C14.9392 3.96796 15.602 4.24214 16.2225 4.59619L18.417 2.40021L18.474 2.34322C17.1961 1.4853 15.7605 0.891173 14.25 0.595703ZM2.34296 5.52472C1.48503 6.8026 0.89091 8.23897 0.595459 9.74951H3.77996C3.97046 9.05201 4.24571 8.39199 4.59746 7.77774L2.34296 5.52472ZM21.6555 5.52472L19.4047 7.77774C19.7557 8.39124 20.0295 9.05276 20.22 9.74951H23.4037C23.1083 8.23897 22.5134 6.8026 21.6555 5.52472ZM0.595459 14.2495C0.89091 15.7601 1.48503 17.1963 2.34296 18.4742L4.57571 16.2414L4.59446 16.2227C4.23987 15.6024 3.96519 14.9396 3.77696 14.2502L0.595459 14.2495ZM20.2215 14.2495C20.031 14.947 19.7557 15.6084 19.404 16.2219L21.6555 18.4742C22.5134 17.1963 23.1075 15.7601 23.403 14.2495H20.2215ZM16.2225 19.4042C15.6082 19.756 14.9475 20.0304 14.25 20.2217V23.4032C15.7602 23.1076 17.1963 22.5135 18.474 21.6558L16.2225 19.4042ZM7.77671 19.4042L5.52671 21.6542C6.8039 22.5119 8.23945 23.106 9.74921 23.4017V20.2202C9.05171 20.0297 8.39021 19.7552 7.77671 19.4042Z" fill="#FFD44F"/>
<path d="M12 -0.000976562C5.3775 -0.000976562 0 5.37648 0 11.999C0 18.6222 5.3775 23.999 12 23.999C18.6225 23.999 24 18.6222 24 11.999C24 5.37648 18.6225 -0.000976562 12 -0.000976562ZM12 0.749023C18.2175 0.749023 23.25 5.78148 23.25 11.999C23.25 18.2165 18.2175 23.249 12 23.249C5.7825 23.249 0.75 18.2165 0.75 11.999C0.75 5.78148 5.7825 0.749023 12 0.749023Z" fill="#5D3014"/>
<path d="M12 3.46777C7.293 3.46777 3.46875 7.29202 3.46875 11.999C3.46875 16.7068 7.293 20.5303 12 20.5303C16.707 20.5303 20.5312 16.7068 20.5312 11.999C20.5312 7.29202 16.707 3.46777 12 3.46777ZM12 4.21777C16.302 4.21777 19.7812 7.69777 19.7812 11.999C19.7812 16.301 16.3013 19.7803 12 19.7803C10.9779 19.7811 9.96573 19.5803 9.02131 19.1896C8.07689 18.7988 7.21878 18.2257 6.49607 17.503C5.77335 16.7803 5.20022 15.9222 4.80946 14.9778C4.41869 14.0334 4.21796 13.0211 4.21875 11.999C4.21875 7.69702 7.69875 4.21777 12 4.21777Z" fill="#5D3014"/>
<path fill-rule="evenodd" clip-rule="evenodd" d="M9.74993 20.2498V23.3263H10.4999V20.2498H9.74993ZM13.4999 20.2498V23.3263H14.2499V20.2498H13.4999ZM9.74993 0.674805V3.74979H10.4999V0.674805H9.74993ZM13.4999 0.674805V3.74979H14.2499V0.674805H13.4999ZM0.674927 9.74979V10.4998H3.74993V9.74979H0.674927ZM0.674927 13.4998V14.2498H3.74993V13.4998H0.674927ZM20.2499 9.74979V10.4998H23.3249V9.74979H20.2499ZM20.2499 13.4998V14.2498H23.3249V13.4998H20.2499ZM4.57493 16.2441L2.40068 18.4175L2.93093 18.9478L5.10518 16.7744L4.57493 16.2441ZM7.22768 18.8954L5.05268 21.0688L5.58218 21.5991L7.75718 19.4255L7.22768 18.8954ZM18.4177 2.40282L16.2427 4.57632L16.7722 5.1066L18.9472 2.93304L18.4177 2.40282ZM21.0689 5.05405L18.8939 7.2276L19.4249 7.75778L21.5992 5.58432L21.0689 5.05405ZM19.4249 16.2441L18.8932 16.7744L21.0682 18.9478L21.5992 18.4175L19.4249 16.2441ZM16.7722 18.8954L16.2419 19.4255L18.4169 21.5991L18.9479 21.0688L16.7722 18.8954ZM5.58218 2.40282L5.05193 2.93231L7.22693 5.1066L7.75793 4.57632L5.58218 2.40282ZM2.93093 5.05405L2.40068 5.58432L4.57493 7.75778L5.10518 7.2276L2.93093 5.05405Z" fill="#5D3014"/>
<path d="M13.1824 15.0772C12.4903 15.3356 11.6157 15.4648 10.5584 15.4648C10.3802 15.4648 10.2198 15.3906 10.0772 15.2421C9.93763 15.0936 9.86784 14.9347 9.86784 14.7654V10.0431C9.85893 9.84112 9.8515 9.63916 9.84556 9.4372C9.83665 9.20851 9.84408 9.01546 9.86784 8.85805C9.90942 8.57887 10.1693 8.40958 10.6475 8.35018C10.8732 8.28484 11.2474 8.25217 11.7701 8.25217C12.3315 8.25217 12.869 8.43334 13.3828 8.79568C13.9857 9.21742 14.2872 9.7446 14.2872 10.3772C14.2872 10.7188 14.2248 11.0068 14.1001 11.2415C14.0021 11.4316 13.8313 11.635 13.5878 11.8518C13.8759 11.9914 14.1313 12.2023 14.354 12.4844C14.6065 12.7992 14.7327 13.1126 14.7327 13.4244C14.7327 13.8194 14.5174 14.1937 14.0867 14.5471C13.7986 14.7817 13.4972 14.9584 13.1824 15.0772ZM11.7701 9.45948C11.387 9.45948 11.1568 9.46245 11.0796 9.46839L11.0841 10.4128L11.0796 11.3484C11.3499 11.3811 11.5533 11.3915 11.6899 11.3796C12.5988 11.3083 13.0532 10.9742 13.0532 10.3772C13.0532 10.1663 12.9195 9.96289 12.6522 9.76687C12.376 9.56194 12.082 9.45948 11.7701 9.45948ZM12.2914 12.6092C12.0211 12.6092 11.6172 12.5988 11.0796 12.578V14.2441C11.5904 14.2174 12.1443 14.1194 12.7413 13.9501C13.264 13.8016 13.5224 13.6412 13.5165 13.469C13.5076 13.2403 13.3398 13.0368 13.0131 12.8586C12.7576 12.7161 12.5171 12.6329 12.2914 12.6092Z" fill="black"/>
<path d="M12.6899 16.1459C12.5708 16.127 12.4806 16.0654 12.4193 15.9609C12.3743 15.8864 12.3521 15.8071 12.3528 15.723C12.352 15.264 12.3573 14.9985 12.3687 14.9267C12.3863 14.8158 12.4346 14.7308 12.5134 14.6718C12.5946 14.611 12.6917 14.5896 12.8046 14.6075C13.0325 14.6437 13.1469 14.7786 13.1477 15.0124C13.1501 15.4612 13.1438 15.7328 13.1288 15.8272C13.1112 15.9381 13.0618 16.024 12.9806 16.0847C12.8997 16.1435 12.8028 16.1639 12.6899 16.1459Z" fill="black"/>
<path d="M12.2336 9.11859C12.1145 9.09969 12.0243 9.03801 11.963 8.93355C11.918 8.85904 11.8958 8.77975 11.8965 8.69566C11.8957 8.23663 11.901 7.97119 11.9124 7.89932C11.93 7.78845 11.9783 7.70348 12.0571 7.64442C12.1383 7.58364 12.2354 7.56221 12.3483 7.58014C12.5763 7.61632 12.6906 7.7513 12.6914 7.98508C12.6938 8.43384 12.6875 8.70545 12.6725 8.7999C12.6549 8.91078 12.6055 8.99661 12.5243 9.05739C12.4434 9.11612 12.3465 9.13652 12.2336 9.11859Z" fill="black"/>
<path d="M11.4127 16.3276C11.2936 16.3087 11.2034 16.247 11.1421 16.1425C11.0971 16.068 11.075 15.9887 11.0757 15.9046C11.0749 15.4456 11.0802 15.1802 11.0916 15.1083C11.1092 14.9974 11.1574 14.9125 11.2362 14.8534C11.3175 14.7926 11.4145 14.7712 11.5275 14.7891C11.7554 14.8253 11.8697 14.9603 11.8705 15.1941C11.873 15.6428 11.8667 15.9144 11.8517 16.0089C11.8341 16.1198 11.7847 16.2056 11.7034 16.2664C11.6226 16.3251 11.5256 16.3455 11.4127 16.3276Z" fill="black"/>
<path d="M11.1386 9.02777C11.0195 9.00887 10.9293 8.94719 10.868 8.84273C10.823 8.76822 10.8009 8.68893 10.8016 8.60484C10.8008 8.14581 10.8061 7.88037 10.8175 7.8085C10.8351 7.69763 10.8833 7.61266 10.9621 7.5536C11.0434 7.49282 11.1404 7.47139 11.2534 7.48932C11.4813 7.5255 11.5956 7.66048 11.5964 7.89426C11.5988 8.34302 11.5926 8.61463 11.5776 8.70908C11.56 8.81996 11.5106 8.90579 11.4293 8.96657C11.3484 9.0253 11.2515 9.0457 11.1386 9.02777Z" fill="black"/>
</g>
<defs>
<clipPath id="clip0_986_565">
<rect width="24" height="24" fill="white"/>
</clipPath>
</defs>
</svg>
