<svg width="32" height="32" viewBox="0 0 32 32" fill="none" xmlns="http://www.w3.org/2000/svg">
<rect width="32" height="32" rx="4" fill="#121212"/>
<path d="M21.36 9.54864C22.0373 9.31197 22.688 9.96264 22.4513 10.64L18.5013 21.9266C18.2447 22.6586 17.2247 22.7 16.91 21.9913L15.004 17.7033L17.6867 15.02C17.775 14.9252 17.8231 14.7998 17.8208 14.6703C17.8185 14.5408 17.766 14.4172 17.6744 14.3256C17.5828 14.2339 17.4592 14.1815 17.3297 14.1792C17.2001 14.1769 17.0748 14.225 16.98 14.3133L14.2967 16.996L10.0087 15.09C9.29998 14.7746 9.34198 13.7553 10.0733 13.4986L21.36 9.54864Z" fill="#FFD44F"/>
</svg>
