<svg width="24" height="24" viewBox="0 0 24 24" fill="none" xmlns="http://www.w3.org/2000/svg">
<circle cx="12" cy="12" r="12" fill="#FFD44F"/>
<path d="M12 5.3335C8.32001 5.3335 5.33334 8.32016 5.33334 12.0002C5.33334 15.6802 8.32001 18.6668 12 18.6668C15.68 18.6668 18.6667 15.6802 18.6667 12.0002C18.6667 8.32016 15.68 5.3335 12 5.3335ZM15.0933 9.86683C14.9933 10.9202 14.56 13.4802 14.34 14.6602C14.2467 15.1602 14.06 15.3268 13.8867 15.3468C13.5 15.3802 13.2067 15.0935 12.8333 14.8468C12.2467 14.4602 11.9133 14.2202 11.3467 13.8468C10.6867 13.4135 11.1133 13.1735 11.4933 12.7868C11.5933 12.6868 13.3 11.1335 13.3333 10.9935C13.338 10.9723 13.3374 10.9503 13.3315 10.9294C13.3257 10.9085 13.3149 10.8893 13.3 10.8735C13.26 10.8402 13.2067 10.8535 13.16 10.8602C13.1 10.8735 12.1667 11.4935 10.3467 12.7202C10.08 12.9002 9.84001 12.9935 9.62668 12.9868C9.38668 12.9802 8.93334 12.8535 8.59334 12.7402C8.17334 12.6068 7.84668 12.5335 7.87334 12.3002C7.88668 12.1802 8.05334 12.0602 8.36668 11.9335C10.3133 11.0868 11.6067 10.5268 12.2533 10.2602C14.1067 9.48683 14.4867 9.3535 14.74 9.3535C14.7933 9.3535 14.92 9.36683 15 9.4335C15.0667 9.48683 15.0867 9.56016 15.0933 9.6135C15.0867 9.6535 15.1 9.7735 15.0933 9.86683Z" fill="#5D3014"/>
</svg>
